<?xml version="1.0" encoding="utf-8"?>
<!-- Generator: Adobe Illustrator 19.2.1, SVG Export Plug-In . SVG Version: 6.00 Build 0)  -->
<svg width="200px" height="155px" version="1.1" xmlns="http://www.w3.org/2000/svg" xmlns:xlink="http://www.w3.org/1999/xlink" x="0px" y="0px"
	 viewBox="0 0 792 612" style="enable-background:new 0 0 792 612;" xml:space="preserve">
<style type="text/css">
	.st0{fill:#FFFFFF;}
	.st1{fill:#BD9C75;}
</style>
<g id="Layer_1">
	<polygon class="st0" points="578,250.5 577.8,180.5 467.8,181.2 469.8,249.2 441.5,249.2 440.3,166.5 331,166.5 331,249.2 
		302.5,249.2 302.5,182.5 192.9,182.5 192.9,247.8 203.8,351.2 555.8,351.2 	"/>
	<path class="st1" d="M330.6,224.7c0-17.3,0-34.3,0-51.5c36.6,0,73,0,109.7,0c0,17.2,0,34.2,0,51.5c9.4,0.1,18.5,0.1,28,0
		c0-11.3,0-22.5,0-33.8c36.7,0,73,0,109.7,0c0,1.8,0,3.5,0,5.3c0,26.1,0,52.2,0,78.2c0,2.6,0.1,5.3,0,7.9c-0.2,3.8,1.6,6.5,4.4,8.6
		c2.7,2,5.6,3.6,8.6,5.3c2.3,1.3,4.7,2.4,7.1,3.5c1.8,0.9,2.8,2.2,2.7,4.3c-0.1,1.8,0,3.7,0,5.5c0,1.8-0.2,2-2.1,2
		c-6.3,0-12.6,0-19,0.1c-0.8,0-1.6,0-2.6,0c0,15.4,0,30.5,0,45.6c-2,0.5-377.8,0.7-381.7,0.2c0-15.1,0-30.3,0-45.7
		c-1.1-0.1-1.9-0.1-2.8-0.2c-5,0-10.1,0-15.1,0c-2.8,0-3.1-0.3-3.1-3.2c0-2.1,0.1-4.2,0-6.2c-0.1-1.4,0.5-2.3,1.7-2.9
		c2.8-1.4,5.6-2.7,8.4-4.2c2.1-1.1,4.1-2.4,6.1-3.8c1.9-1.3,2.5-3.3,2.5-5.7c-0.1-29.5-0.1-59-0.1-88.5c0-2,0-4,0-5.9
		c1.9-0.6,105.2-0.8,109.8-0.3c0.4,11.1,0,22.2,0.3,33.7C312.1,224.8,321.1,224.8,330.6,224.7z M375,343.4c0.2,0.1,0.3,0.2,0.5,0.4
		c2.2,3.1,7,3,9-0.2c0.8-1.3,0.8-2.7,0-4c-1.5-2.4-5.2-3.2-7.6-1.6c-0.5,0.3-0.7,1.1-1.1,1.7c-0.3,0.1-0.8,0.1-0.9,0.4
		C374.2,341,374.4,342.2,375,343.4z M433,339.4c-0.8,1.3-0.6,2.6,0,3.9c0.9,2.3,2.7,2.9,4.9,2.7c1.4-0.2,3.1,0,3.6-2.4
		c-1.8,1.6-3.4,1.5-5,0.4c-1.1-0.8-1.3-1.9-1-3.3c1.5,0,2.8,0.1,4.2,0c1.4-0.1,1.9-1.1,1.1-2.3c-0.4-0.6-1-1.2-1.6-1.3
		c-1.2-0.2-2.6-0.2-3.8,0C434.3,337.4,433.1,337.9,433,339.4z M321.5,291c0-0.1,0-0.2,0-0.4c0.7-0.2,1.4-0.5,2.2-0.7
		c3.1-1,6.1-2.3,8.9-4.2c5-3.5,6.3-7.2,4.7-13.1c-1-3.7-3.2-6.3-6.9-7.3c-2.8-0.8-5.7-1.5-8.6-1.8c-6.5-0.8-13.1,0-19.6,0.2
		c-2.9,0.1-5.7,0.7-8.5,1.2c-1,0.2-2,0.9-2.9,1.5c-0.7,0.5-1.1,1.6-0.5,2.3c0.3,0.4,1.3,0.2,1.9,0.3c0.1,0,0.3-0.1,0.5-0.1
		c1.6-0.3,2.6,0.3,3,1.9c0.2,1,0.2,2.1,0.2,3.1c0,11.8,0,23.7,0,35.5c0,3.6-0.8,6.8-4.6,8.4c-0.4,0.2-0.8,1.1-0.7,1.6
		c0.1,0.5,0.7,1,1.2,1.2c0.6,0.2,1.3,0.1,1.9,0.1c5.7,0.1,11.3,0.2,17,0.3c1,0,2.1,0.1,3.1,0.2c0.8,0,1.5,0,1.6-1
		c0.1-1-0.1-1.8-1.1-2.1c-0.4-0.1-0.8-0.3-1.2-0.3c-2.2-0.1-3.3-1.5-3.9-3.4c-0.3-0.9-0.6-1.9-0.6-2.8c-0.1-5-0.2-9.9-0.2-14.9
		c0-0.9,0.2-1.8,0.4-2.6c0.3-1.3,1.1-2.1,2.5-2.2c1.6-0.1,3.2-0.2,4.8-0.1c5,0.4,9.7,4.7,10.2,9.6c0.3,2.7,0,5.6-0.1,8.4
		c-0.1,1.7-0.4,3.4-0.3,5c0.3,3.5,3.1,5.9,6.6,5.9c2.2,0,4.5,0.1,6.7,0c1.2-0.1,2.5-0.4,3.7-0.8c0.6-0.3,1.2-1,1.4-1.7
		c0.3-1-0.6-1.4-1.4-1.6c-2.5-0.8-3.4-2.8-3.6-5.2c-0.2-2-0.2-4-0.5-6c-0.3-2.3-0.8-4.6-1.4-6.8c-0.7-2.4-2.4-4.2-4.8-5
		c-2.3-0.7-4.6-1.3-6.9-1.9C324.3,291.5,322.9,291.3,321.5,291z M474.4,295.1c-0.2,0.1-0.4,0.2-0.5,0.3c-0.4-0.5-0.7-1-1.1-1.5
		c-1.7-2-3.4-4.1-5.1-6.1c-6.4-7.6-12.8-15.2-19.1-22.8c-0.8-1-1.6-1.9-3.2-1.7c-3.7,0.5-7.5,0.4-11.2,0c-1.2-0.1-2.6,0-3.8,0.2
		c-0.4,0.1-1,0.6-1.1,1c-0.1,0.4,0.3,1,0.6,1.5c0.1,0.2,0.5,0.3,0.8,0.4c3.1,1.3,4.3,3.5,4.3,6.9c-0.2,12.6-0.1,25.3-0.1,37.9
		c0,0.6,0,1.3,0,1.9c-0.2,2.1-1.1,3.2-3.1,3.7c-0.6,0.2-1.3,0.3-1.9,0.5c-1,0.3-1.7,1-1.6,2.1c0.2,1.1,1.2,1.2,2.1,1.1
		c0.2,0,0.3,0,0.5,0c4.8,0,9.6,0,14.4,0c0.4,0,0.9,0.1,1.2,0c0.6-0.3,1.5-0.6,1.6-1.1c0.2-0.5-0.2-1.5-0.7-1.8
		c-0.8-0.6-1.8-1.1-2.8-1.2c-3.2-0.3-4.3-0.8-4.4-4.8c0-0.3,0-0.6,0-1c0-10.6,0-21.3,0-31.9c0-0.6,0.1-1.2,0.1-2.2
		c0.8,0.9,1.3,1.3,1.7,1.9c4,5,8,10,12,15c6.8,8.5,13.6,17,20.4,25.5c0.8,1,1.6,1.9,3,1.4c1.4-0.4,2.2-1.6,2.2-3.3
		c0-0.6,0-1.1,0-1.7c0-14.1,0-28.2,0-42.2c0-1,0.1-2.1,0.2-3.1c0.2-1.7,1.3-2.7,2.9-3.1c0.5-0.1,0.9-0.2,1.4-0.3
		c1.5-0.4,2.2-1.2,2.1-2.2c-0.3-1.5-1.5-1.1-2.5-1.1c-4.8,0-9.6,0-14.4,0c-0.4,0-0.8-0.1-1.2,0.1c-0.5,0.2-1.3,0.5-1.5,0.9
		c-0.2,0.5,0.1,1.3,0.4,1.7c0.9,1.1,2.2,1.5,3.6,1.6c2.9,0.3,3.6,0.9,3.8,3.8c0,0.5,0,1,0,1.4c0,6.8,0,13.6,0,20.4
		C474.6,293.7,474.5,294.4,474.4,295.1z M496.5,291.6c0.2,2.2,0.3,4.5,0.7,6.7c2.2,10.6,8.1,17.9,18.9,20.7c2.6,0.7,5.4,0.9,8.1,1.1
		c4.8,0.2,9.3-1.1,13.3-3.9c10-6.9,14.9-19.1,12.6-31c-2-10-12.1-22.1-24.5-22.8c-9-0.5-16.7,2.2-22.3,9.6
		C498.9,277.8,496.6,284.3,496.5,291.6z M386.6,320.7c0,0.1,0,0.1,0,0.2c7.3,0,14.5,0,21.8,0c2.3,0,2.6-0.2,2.9-2.5
		c0.4-2.9,0.7-5.9,1.1-8.8c0.1-0.5,0.1-1,0.1-1.4c-0.1-1.3-1.2-1.8-2.2-1c-0.4,0.3-0.8,0.8-1.1,1.2c-1.4,1.6-2.8,3.3-4.3,4.8
		c-1.1,1.2-2.5,1.9-4.1,2.2c-3.9,0.9-7.8,1-11.7,0.9c-4.5,0-6.6-1.8-7.2-6.3c-0.1-0.7-0.1-1.4-0.1-2.2c0-3.5,0-7,0-10.6
		c0-0.9,0-1.8,0.2-2.6c0.4-2.2,0.9-2.8,3.1-2.9c2.6-0.1,5.1,0,7.7,0.1c2.4,0.1,3.8,1.5,4.4,3.7c0.1,0.5,0.2,0.9,0.3,1.4
		c0.3,1.2,1.2,1.4,2.2,1.4c1,0,1.3-0.8,1.4-1.6c0.1-0.5,0-1.1,0-1.7c0-3.3,0-6.5,0-9.8c0-0.6,0.1-1.2,0-1.7c-0.1-0.5-0.5-1.1-1-1.2
		c-0.4-0.1-1.2,0.2-1.4,0.5c-0.6,0.8-0.9,1.7-1.3,2.5c-0.9,2-2.3,3.1-4.7,3.1c-2.3-0.1-4.6,0.1-7,0.1c-2.9,0-4-1.1-4-4.1
		c0-4.2,0-8.3,0-12.5c0-0.6,0-1.1,0.1-1.7c0.4-2.4,1.1-3.2,3.5-3.5c4.5-0.7,9.1-0.6,13.6,0c1.7,0.2,3.2,0.9,4.3,2.3
		c1,1.2,1.9,2.4,2.8,3.5c0.5,0.6,1.3,1.3,2,0.8c0.5-0.3,0.8-1.2,0.8-1.8c0.1-2.1,0.1-4.2,0-6.2c-0.1-2.1-0.4-2.5-2.6-2.5
		c-4.1,0-8.2,0.2-12.2,0.2c-6.9,0-13.7,0-20.6-0.1c-2.7,0-5.4-0.1-8.2,0c-0.8,0-1.6,0.2-2.3,0.4c-1.2,0.5-1.3,1.3-0.3,2.1
		c0.7,0.5,1.5,1,2.3,1.2c1.9,0.5,3,1.8,3.5,3.6c0.4,1.3,0.6,2.7,0.6,4c0,11.4,0,22.7,0.1,34.1c0,2.7-0.8,4.9-2.6,6.7
		c-0.9,0.9-2.1,1.7-3.2,2.4c-0.8,0.5-1.2,1-1.1,1.9c0.2,1,0.9,1.3,1.7,1.3c0.6,0,1.1,0,1.7,0C372.7,320.7,379.7,320.7,386.6,320.7z
		 M251.3,267.2c4.2-1.4,11.1-0.3,14.2,2.3c1.2,1,1.9,2.3,2.4,3.8c0.3,1.1,0.9,2.2,1.5,3.3c0.4,0.7,1.1,1.4,1.9,0.9
		c0.6-0.3,0.9-1.2,1.2-1.9c0.1-0.4-0.1-0.9-0.2-1.4c-0.4-2.4-0.8-4.7-1.1-7.1c-0.4-3.3-1-3.9-4.3-3.9c-8.3,0.1-16.6,0.3-24.9,0.4
		c-6.3,0-12.6-0.1-19-0.1c-2.2,0-2.5,0.2-3.2,2.3c-0.2,0.5-0.3,1.1-0.4,1.6c-0.3,1.7-0.6,3.5-0.8,5.2c-0.1,1-0.2,2.1-0.3,3.1
		c0,0.8,0.3,1.5,1.2,1.5c0.5,0,1.3-0.4,1.5-0.8c0.7-1.3,1.3-2.6,1.6-4c0.6-2.4,2-4,4.2-4.8c3.9-1.5,8-1.5,12-0.8
		c0.2,0,0.4,0.2,0.6,0.4c0,0.6,0.1,1.3,0.1,1.9c0,13.8,0,27.7,0,41.5c0,0.8,0,1.6-0.1,2.4c-0.2,2.2-1.2,3.7-3.5,4.3
		c-0.8,0.2-1.5,0.5-2.2,0.9c-0.4,0.3-0.9,1-0.7,1.3c0.2,0.5,0.8,1.1,1.3,1.1c1.2,0.1,2.4,0.1,3.6,0c4.6-0.4,9.1-0.5,13.7,0
		c1.6,0.2,3.2,0.2,4.8,0.1c0.5,0,1.3-0.6,1.4-1c0.1-0.4-0.4-1.2-0.8-1.5c-0.6-0.4-1.4-0.7-2.2-0.9c-2-0.6-3.1-1.9-3.3-4
		c-0.1-1.4-0.2-2.9-0.2-4.3c0-13.1,0-26.2,0-39.4C251.3,268.8,251.3,267.9,251.3,267.2z M396.4,238c0-1,0.1-1.8,0.1-2.5
		c0-3.6,0-7.2,0-10.8c0-8.4,0-16.8,0-25.2c0-3.2-0.9-6.2-3-8.7c-3.7-4.4-9.9-4.4-13.6,0c-2.1,2.4-3,5.3-3,8.4c0,12.2,0,24.3,0,36.5
		c0,0.8,0.1,1.5,0.2,2.3C383.7,238,389.9,238,396.4,238z M417.3,237.7c0.1-0.6,0.2-1,0.2-1.5c0-9.4,0.1-18.9,0-28.3
		c0-1.8-0.6-3.6-1.4-5.2c-1.2-2.4-3.4-3.9-6.2-3.8c-2.8,0.1-4.8,1.6-6.1,4c-1,1.8-1.3,3.7-1.3,5.8c0,8.8,0,17.6,0,26.4
		c0,0.9,0.1,1.7,0.1,2.7C407.6,237.7,412.4,237.7,417.3,237.7z M253.7,237.7c0.1-0.5,0.2-0.8,0.2-1c0-7.9,0-15.8,0-23.8
		c0-2.3-0.6-4.6-1.7-6.7c-2.7-5.1-9-5-11.7,0c-1.2,2.2-1.7,4.5-1.7,6.9c0,7.6,0,15.2,0,22.8c0,0.5,0.1,1.1,0.2,1.7
		C243.9,237.7,248.7,237.7,253.7,237.7z M515.8,237.6c5,0,9.9,0,14.7,0c0.1-0.3,0.3-0.5,0.3-0.6c0-8.2,0.1-16.5,0-24.7
		c0-2.5-0.8-4.9-2.3-7c-1.2-1.6-2.6-2.7-4.8-2.8c-3.1-0.2-5,1.4-6.4,3.9c-1.2,2.1-1.6,4.5-1.6,6.9c0,7.5,0,15,0,22.6
		C515.7,236.4,515.8,237,515.8,237.6z M370.9,237.7c0.1-0.4,0.2-0.6,0.2-0.8c0-9.9,0-19.8,0-29.8c0-2-0.7-3.8-1.9-5.3
		c-2.9-3.9-8.1-4-11.1-0.2c-1.4,1.8-2,3.9-2,6.3c0,9.3,0,18.6,0,27.8c0,0.6,0.1,1.2,0.1,2C361.2,237.7,365.9,237.7,370.9,237.7z
		 M549.1,237.5c0-6.9,0.1-13.6-0.1-20.2c0-1.8-0.7-3.6-1.5-5.2c-2.1-3.9-7-3.7-9.1-0.1c-1.1,1.9-1.5,4-1.5,6.2c0,5.9,0,11.8,0,17.7
		c0,0.5,0.1,1.1,0.2,1.6C541.1,237.5,545,237.5,549.1,237.5z M509.5,237.5c0.1-0.4,0.2-0.6,0.2-0.9c0-6.4,0.1-12.8-0.1-19.2
		c0-1.6-0.6-3.3-1.2-4.8c-0.9-2-2.4-3.4-4.8-3.4c-2.5,0-4.1,1.3-5,3.4c-0.7,1.7-1.1,3.7-1.2,5.5c-0.1,5.8-0.1,11.7,0,17.5
		c0,0.5,0.1,1.1,0.1,1.7C501.6,237.5,505.5,237.5,509.5,237.5z M232.5,237.5c0.1-0.3,0.2-0.5,0.2-0.6c0-6.5,0.1-13.1,0-19.6
		c0-1.6-0.6-3.3-1.3-4.8c-0.9-1.9-2.4-3.1-4.7-3.2c-2.4,0-3.8,1.3-4.9,3.2c-1,1.8-1.3,3.8-1.3,5.8c0,5.8,0,11.7,0,17.5
		c0,0.5,0.1,1.1,0.1,1.7C224.6,237.5,228.5,237.5,232.5,237.5z M259.9,237.6c4.2,0,8.2,0.1,12.2-0.1c0-7.1,0.1-13.9-0.1-20.6
		c0-1.7-0.8-3.6-1.7-5.1c-2-3.5-6.6-3.3-8.7-0.1c-1.3,1.9-1.7,4.1-1.7,6.4c0,3.5,0,7,0,10.5C259.9,231.5,259.9,234.4,259.9,237.6z
		 M346.2,345.6c-0.4-0.9-1-1.8-1-2.7c0-2.4-1-3.9-3.5-4.4c-0.1,0-0.1-0.2-0.2-0.4c0.3-0.2,0.6-0.3,0.8-0.4c2.2-1.2,2.7-2,2.3-3.7
		c-0.3-1.5-1.2-2.3-3.4-2.4c-2.3-0.1-4.6,0-6.9,0.1c-0.5,0-0.9,0.4-1.1,0.4c0.4,0.9,0.9,1.7,0.9,2.4c0.1,1.9,0.1,3.8,0,5.8
		c0,1.8,0.3,3.7-1.3,5.5c2.2,0,4,0,6,0c-2.4-2-1.3-4.5-1.4-6.8c3.7-1,5.5,0.8,5,5.3c-0.2-0.6-0.3-0.8-0.5-1.1
		c-0.5,1.1-0.2,2,0.7,2.4C343.9,346.2,345.1,346.2,346.2,345.6z M408.5,345.7c2,0,3.8,0,5.8,0c-2-1.9-1.2-4-1.2-6
		c0-1,0.5-1.6,1.6-1.7c1-0.1,1.7,0.4,2,1.3c0.8,2,0.3,4.8-1.5,6.5c2.1,0,3.9,0,5.6,0c-0.3-1.1-0.7-2-0.8-2.9c-0.1-0.7,0-1.4,0-2.2
		c0-3-0.8-3.7-3.7-3.7c-0.7,0-1.4,0.2-2.1,0.3c-0.4,0-0.9,0.2-1.1,0.1c-1.4-1.5-2.6,0-3.9,0.1C410.6,339.8,410.3,343.9,408.5,345.7z
		 M406.3,344.7c-2-0.1-1.6-1.2-1.7-2.2c0-0.7,0-1.4,0-2.2c0-2.9-0.5-3.3-3.3-3.3c-0.6,0-1.4-0.1-1.9,0.2c-0.8,0.4-1.7,1-2.1,1.8
		c-0.6,0.9-0.1,1.6,1,1.7c0.9-2.6,1.4-3.1,2.5-2.6c1.3,0.5,1.1,1.5,0.7,2.5c-3.9,1.7-4.5,2.6-3.5,5.5c1.2-0.4,2.4-0.7,3.6-1.1
		C403,346.1,404.4,346.2,406.3,344.7z M428.5,332.9c-1.7,1.7-3,3-4.6,4.6c0.9-0.1,1.6-0.2,2.5-0.2c0.1,1.4,0,2.7,0.2,3.9
		c0.3,2-0.4,3.3-2.3,4c-0.1,0-0.1,0.2-0.2,0.6c2,0,3.9,0,5.8,0c-0.4-0.8-1-1.5-1.1-2.3c-0.2-1.8-0.1-3.6-0.1-5.5
		c0.9,0.1,1.6,0.1,2.5,0.2c-0.2-1.7-1.7-0.7-2.4-1.6C428.7,335.5,428.6,334.3,428.5,332.9z M390.8,338.8c0.9,0.2,1.6,0.1,1.8,0.4
		c0.6,0.6,1.1,0.7,1.6,0.1c0.3-0.4,0.5-1.2,0.4-1.4c-0.3-0.4-1-0.8-1.5-0.8c-0.7,0-1.3,0.4-2.1,0.7c-0.4-0.8-0.9-1.4-2-0.7
		c-0.6,0.4-1.4,0.6-2.5,1.1c0.9,0.4,1.4,0.5,1.8,0.7c0,1.8,0,3.7,0,5.2c-0.8,0.5-1.5,0.9-2.2,1.3c0,0.1,0.1,0.2,0.1,0.4
		c1.9,0,3.7,0,5.8,0C389.9,343.7,390.9,341.4,390.8,338.8z M369.3,337.2c0.2,2.3,0.3,4.6-0.1,6.8c0,0.1-0.5,0.1-0.7,0.3
		c-0.5,0.4-1.1,0.8-2,1.5c2.4,0,4.4,0,6.3,0c-0.5-0.7-1.2-1.2-1.2-1.8c-0.1-2-0.1-4-0.1-6.1c1.9,0.4,1.9,0.4,2.3-0.7
		c-0.7-0.2-1.5-0.3-2.2-0.5c-0.1-1.2-0.2-2.4-0.2-3.2c-1.3,1.4-2.7,2.8-3.8,4C367.7,337.4,368.3,337.3,369.3,337.2z M360,338.4
		c1.5-1.9,2.7-0.1,3.9,0.4c0.8-0.9,0.5-1.5-0.4-1.7c-1.1-0.2-2.2-0.2-3.3-0.1c-1.3,0.2-2.1,1.1-2.2,2.2c-0.1,1.4,0.8,1.9,2,2.3
		c1.1,0.3,2.2,0.9,3.2,1.3c-0.6,2.9-2.1,3.2-4.8,1.1c-0.8,0.6-0.9,1.3,0.1,1.5c1,0.3,2.2,0.5,3.3,0.3c2-0.2,3.2-1.4,3.4-2.8
		c0.2-1.4-0.6-2.2-2.8-3C361.4,339.7,360.4,339.7,360,338.4z M350.5,337.7c0.3,2.9,1.5,5.6-1.2,8.1c2.1,0,3.9,0,6.2,0
		c-1.9-1.1-1.5-2.7-1.6-4.1c0-1.6,0-3.1,0-5C352.5,337,351.5,337.4,350.5,337.7z M446.3,339.8c2.6,0.7,9.4,0.7,11,0
		C455.7,339.2,448.8,339.2,446.3,339.8z M315.9,340.1c2.9,0.8,9.6,0.6,10.8-0.1C324.8,339.4,318.1,339.4,315.9,340.1z M352.1,332.7
		c-0.3,0.4-0.9,0.9-1,1.5c-0.2,0.8,0.7,1.5,1.5,1.4c0.9,0,1.3-0.6,1.3-1.4C354,333.4,353.3,332.7,352.1,332.7z"/>
	<path class="st1" d="M385.1,172c-17.1,0-34.2-0.1-51.3,0.1c-2.7,0-4.9-0.4-6.7-2.7c-1.1-1.4-2.6-2.6-3.9-3.9
		c-1.3-1.3-2.4-2.7-1.6-4.7c0.9-1.9,2.6-2.5,4.5-2.4c0.5,0,1,0,1.4,0.1c3.5,0.4,6.5-0.8,9.3-2.9c5.1-3.8,10.5-7.3,15.5-11.2
		c3.3-2.5,6.7-3.4,10.8-3.3c16.2,0.2,32.4,0.1,48.7,0c1,0,1.8,0.3,2.6,0.9c5.4,3.9,10.8,7.7,16.2,11.5c1.7,1.2,3.4,2.3,5.2,3.5
		c1.5,1,3.1,1.6,5,1.5c1.5,0,3,0,4.6,0c1.5,0,2.7,0.6,3.2,2c0.6,1.4,0.4,2.9-0.6,4c-2.3,2.4-4.8,4.7-7.3,7c-0.4,0.3-1,0.4-1.5,0.5
		c-0.6,0.1-1.3,0-1.9,0C420,172,402.5,172,385.1,172z"/>
	<path class="st1" d="M247.6,189.8c-17.7,0-35.3,0-53,0c-1.5,0-2.7-0.3-3.8-1.5c-1.7-1.9-3.7-3.5-5.6-5.2c-1.2-1.1-2-2.4-1.3-4
		c0.7-1.7,2.2-2.4,4-2.5c0.1,0,0.2,0,0.2,0c5.3,0.9,9.4-1.4,13.4-4.4c5.1-3.8,10.4-7.4,15.6-11.2c1.6-1.1,3.2-1.6,5.1-1.6
		c17.3,0.1,34.5,0.1,51.8,0c1.5,0,2.7,0.4,3.9,1.3c4.9,3.6,10,6.9,15,10.4c1.7,1.2,3.4,2.4,5,3.7c1.8,1.4,3.8,2.1,6,1.9
		c1.1-0.1,2.2-0.1,3.4-0.2c1.6-0.1,2.9,0.5,3.5,2c0.7,1.5,0.6,3-0.7,4.2c-1.4,1.4-3,2.6-4.5,4c-0.5,0.4-1.2,0.7-1.4,1.3
		c-1,2-2.7,1.9-4.5,1.9C282.5,189.8,265,189.8,247.6,189.8z"/>
	<path class="st1" d="M523.4,189.8c-17.7,0-35.3,0-53,0c-1.6,0-2.8-0.3-4-1.6c-1.2-1.4-2.8-2.4-4.2-3.5c-1.4-1.1-2.3-2.4-2.6-4.2
		c-0.4-2.3,0.7-3.8,3-3.9c0.8,0,1.6,0,2.4,0.1c2.3,0.3,4.5-0.1,6.4-1.3c3.9-2.5,7.7-5.1,11.6-7.7c3.9-2.6,7.8-5.3,11.7-7.9
		c0.7-0.4,1.6-0.6,2.5-0.6c17.6,0,35.2,0,52.8,0c1.3,0,2.2,0.4,3.2,1.2c7.3,5.3,14.7,10.4,22.1,15.6c1.7,1.2,3.5,1.4,5.5,0.9
		c2.7-0.7,4.2-0.2,5.1,1.3c0.9,1.6,0.7,3.7-0.9,5.5c-1.8,2-3.8,3.8-5.9,5.6c-0.6,0.5-1.7,0.4-2.5,0.4c-10.4,0-20.8,0-31.2,0
		C538.2,189.8,530.8,189.8,523.4,189.8z"/>
	<path class="st1" d="M375,343.4c0.1-0.9,0.2-1.9,0.3-2.8c0,1.1,0.1,2.1,0.1,3.2C375.4,343.6,375.2,343.5,375,343.4z"/>
	<path class="st1" d="M308.3,278.8c0-2.2-0.1-4.3,0-6.5c0.1-3.5,1.6-5.1,5.1-5.5c5.1-0.6,9.3,1.9,10.9,6.6c1.8,5,0.1,10.1-4.2,12.8
		c-2.5,1.6-5.3,2.3-8.1,2.7c-2.1,0.3-3.6-1.1-3.7-3.4C308.2,283.3,308.3,281,308.3,278.8C308.3,278.8,308.3,278.8,308.3,278.8z"/>
	<path class="st1" d="M295.6,266.8c2.3,0.3,3.5,1.5,3.9,3.6c0.1,0.9,0.1,1.8,0.1,2.6c0,12.5,0,25.1,0,37.6c0,3-1.3,5.2-3.4,7.1
		c-0.1,0.1-0.3,0.2-0.4,0.2c-0.1,0-0.3,0-0.7,0c0.2-0.5,0.3-0.9,0.6-1.2c1.5-2,2.1-4.2,2.1-6.7c-0.1-11.9,0-23.8,0-35.7
		C297.8,271.6,298.1,268.9,295.6,266.8z"/>
	<path class="st1" d="M319.7,266.4c4.9-0.3,9.2,5.2,9.2,11.2c0,5.7-4.6,11.1-9.9,11.2c0.5-0.4,0.8-0.7,1.2-0.9
		c6.9-3.5,8.9-12.3,4-18.3c-0.9-1.1-2.2-1.8-3.3-2.6C320.6,266.7,320.1,266.6,319.7,266.4z"/>
	<path class="st1" d="M324.1,293.9c1.6,0,2.4,1.1,3.1,2.2c1.7,2.4,2.3,5.2,2.5,8.1c0.1,2.4,0.1,4.8,0,7.2c-0.1,2.6,0,5.1,2.3,7.1
		c-2.4-0.5-3.4-1.3-3.6-3.3c-0.2-1.6-0.2-3.2-0.3-4.8c-0.1-2.5-0.1-4.9-0.3-7.4C327.5,299.7,326.8,296.4,324.1,293.9z"/>
	<path class="st1" d="M434.9,266.6c2,0.4,3,1.7,3.3,3.5c0.1,0.7,0.1,1.4,0.1,2.1c0,13,0,26.1,0,39.1c0,2.5-0.6,4.6-2.6,6.1
		c-0.2,0.1-0.4,0.3-0.6,0.4c-0.1,0.1-0.3,0-0.7,0c0.3-0.5,0.4-0.8,0.7-1.2c1.1-1.7,1.3-3.5,1.3-5.5c0-9.8,0-19.5,0.1-29.3
		c0-2.6,0-5.1,0.1-7.7C436.8,271.6,436.6,269,434.9,266.6z"/>
	<path class="st1" d="M475.7,316.6c-0.7-0.7-1.4-1.4-2.1-2.1c-10-12.4-19.9-24.8-29.9-37.2c-0.9-1.1-1.8-2.3-2.7-3.4
		c-0.7-0.8-0.9-1.8-0.6-3.3c12,15.1,23.7,29.8,35.4,44.6c0.2,0.3,0.3,0.7,0.4,1C476,316.3,475.9,316.4,475.7,316.6z"/>
	<path class="st1" d="M509.5,291.5c-0.2-8.5,1.8-15.6,6.3-21.8c4.4-6.1,11.5-6,16.2-0.1c2.1,2.7,3.4,5.8,4.3,9
		c3,9.9,3.2,19.7-0.7,29.4c-0.7,1.8-1.7,3.7-2.8,5.3c-2.7,3.8-6.4,4.8-10.8,3.3c-2.6-0.9-4.6-2.6-6.2-4.7c-2.6-3.6-4.1-7.8-5-12.1
		C510.1,296.7,509.8,293.7,509.5,291.5z"/>
	<path class="st1" d="M511.1,267.5c-7.6,6.5-11.1,14.4-11,23.9c0.1,9.4,2.9,17.6,10.3,23.9c-0.4-0.2-0.9-0.4-1.3-0.7
		c-5.7-4.3-8.9-10.2-10.2-17.1c-2.2-11.5,1-21.3,9.9-29.1c0.4-0.3,0.7-0.6,1.1-0.9C510,267.5,510.2,267.5,511.1,267.5z"/>
	<path class="st1" d="M533,267.8c0.6,0.6,1.2,1.1,1.8,1.7c2,2.3,3.3,4.9,4.3,7.7c3.8,10.2,4.1,20.4-0.1,30.6
		c-1.1,2.6-2.4,5.1-4.4,7.1c-0.4,0.4-0.9,0.7-1.4,1.1c-0.2-0.4-0.3-0.6-0.3-0.7c4-4.1,5.5-9.3,6.6-14.6c1.6-8,0.7-15.9-1.8-23.6
		c-1-3-2.4-5.7-4.6-8c-0.2-0.2-0.3-0.5-0.5-0.7C532.7,268.1,532.8,267.9,533,267.8z"/>
	<path class="st1" d="M369.6,266.6c1.7,0.4,2.6,1.5,2.8,3c0.2,1.3,0.4,2.7,0.4,4c0,11.9,0,23.8,0,35.7c0,4.1-1.6,6.2-5.9,7.4
		c0.5-0.5,1.1-0.9,1.6-1.4c1.7-1.4,2.5-3.1,2.5-5.4c-0.1-11.5,0-23,0-34.5C371,272.4,371.3,269.4,369.6,266.6z"/>
	<path class="st1" d="M409.2,311.8c0.4,3.1,0.2,3.5-2.3,4.4c-1.1,0.4-2.4,0.6-3.6,0.7c0.6-1.3,2-1.7,2.9-2.5
		C407.1,313.6,408.1,312.7,409.2,311.8z"/>
	<path class="st1" d="M406.7,270.7c-0.7-1-1.4-2.1-2.3-3c-0.8-0.8-1.8-1.4-2.6-2.3c2,0.5,3.8,1.4,5.1,3.1
		C407.7,269.3,407.7,270,406.7,270.7z"/>
	<path class="st1" d="M396.2,290.4c0.8-0.8,1.5-1.3,2.3-2.1c0.6,1.6,0.2,3,0.4,4.5C397.4,292.5,397.2,291.3,396.2,290.4z"/>
	<path class="st1" d="M243,267.2c0,0.9,0,1.7,0,2.4c0,13.2,0,26.4,0,39.5c0,1.8-0.3,3.7-0.7,5.4c-0.4,1.4-1.2,2.7-3,3.4
		c0.1-0.5,0-0.9,0.2-1.1c1.5-2.4,1.8-5.1,1.8-7.8c0-13,0-26,0-39c0-0.7,0-1.4,0.1-2.2C241.3,267,241.9,267,243,267.2z"/>
	<path class="st1" d="M269.3,270.7c-1.7-1.5-3-2.6-4.5-4c1.4-0.3,2.5-0.2,3.8,0.1C268.8,268,269,269.1,269.3,270.7z"/>
	<path class="st1" d="M225.2,266.6c-1.6,1.1-2.9,2.1-4.2,3.1C220.7,266.4,221.6,265.7,225.2,266.6z"/>
	<path class="st1" d="M394.9,213.4c-0.9,0-1.7,0.1-2.4,0.1c-1.6,0-3.1,0-4.9,0c0-3.7,0-7.2,0-10.9c2.3-0.4,4.7-0.2,7.3-0.1
		C394.9,206.2,394.9,209.7,394.9,213.4z"/>
	<path class="st1" d="M387.5,214.6c2.6,0,5,0,7.5,0c0,3.6,0,7.1,0,10.9c-2.3,0.2-4.7,0.1-7.1,0.1c-0.1-0.4-0.4-0.6-0.4-0.9
		C387.5,221.4,387.5,218.1,387.5,214.6z"/>
	<path class="st1" d="M385.8,213.4c-2.5,0-4.8,0-7.3,0c0-3.6,0-7.1,0-10.7c2.4-0.6,4.7-0.1,7-0.3
		C386.1,204.1,386.3,209.8,385.8,213.4z"/>
	<path class="st1" d="M385.9,214.6c0,3.7,0,7.2,0,10.8c-2.5,0-4.8,0-7.4,0c0-3.6,0-7.2,0-10.8C381,214.6,383.4,214.6,385.9,214.6z"
		/>
	<path class="st1" d="M387.6,190.1c4.8,0.3,8.1,5.4,7.2,11.2c-2.3,0-4.7,0-7.2,0C387.6,197.6,387.6,193.9,387.6,190.1z"/>
	<path class="st1" d="M394.9,236.1c-2.5,0-4.8,0-7.3,0c0-3.2,0-6.2,0-9.4c2.4,0,4.8,0,7.3,0C394.9,229.8,394.9,232.9,394.9,236.1z"
		/>
	<path class="st1" d="M385.9,236.1c-2.6,0-4.9,0-7.4,0c0-3.1,0-6.1,0-9.4c2.4-0.3,4.8-0.2,7.4,0
		C385.9,229.8,385.9,232.8,385.9,236.1z"/>
	<path class="st1" d="M378.6,201.3c-0.8-5.9,2.5-10.9,7.3-11.2c0,3.7,0,7.4,0,11.2C383.4,201.3,381.1,201.3,378.6,201.3z"/>
	<path class="st1" d="M416.3,218.8c-2,0-3.7,0-5.6,0c0-2.8,0-5.5,0-8.4c1.9,0,3.7,0,5.6,0C416.3,213.2,416.3,215.8,416.3,218.8z"/>
	<path class="st1" d="M410.6,228c0-2.9,0-5.5,0-8.3c1.9,0,3.7,0,5.8,0c0.2,2.7,0.1,5.4,0,8.3C414.4,228,412.6,228,410.6,228z"/>
	<path class="st1" d="M403.7,228.1c0-2.9,0-5.6,0-8.4c1.9,0,3.7,0,5.6,0c0,2.7,0,5.4,0,8.2C407.6,228.4,405.8,228.1,403.7,228.1z"/>
	<path class="st1" d="M403.7,210.4c1.9,0,3.7,0,5.6,0c0,2.8,0,5.5,0,8.3c-1.8,0-3.6,0-5.6,0C403.7,215.9,403.7,213.2,403.7,210.4z"
		/>
	<path class="st1" d="M416.3,229.1c0,2.5,0,4.7,0,7.2c-1.9,0-3.7,0-5.6,0c-0.4-2.4-0.2-4.7-0.1-7.2
		C412.5,229.1,414.3,229.1,416.3,229.1z"/>
	<path class="st1" d="M416.1,209.4c-1.8,0-3.6,0-5.5,0c0-2.9,0-5.7,0-8.4C414.1,200.6,417,205,416.1,209.4z"/>
	<path class="st1" d="M403.7,236.3c0-2.5,0-4.8,0-7.2c1.9,0,3.7,0,5.6,0c0,2.4,0,4.7,0,7.2C407.4,236.3,405.7,236.3,403.7,236.3z"/>
	<path class="st1" d="M409.3,209.4c-1.9,0-3.7,0-5.5,0c-0.8-4.6,1.6-8.3,5.5-8.6C409.3,203.6,409.3,206.4,409.3,209.4z"/>
	<path class="st1" d="M252.6,225.8c-2,0-3.8,0-5.7,0c0-3.3,0-6.5,0-9.8c1.9,0,3.7,0,5.7,0C252.6,219.2,252.6,222.4,252.6,225.8z"/>
	<path class="st1" d="M247,226.8c1.9,0,3.6,0,5.7,0c0.1,3,0.1,6,0,9.2c-1.9,0-3.7,0-5.7,0C247,233,247,230.1,247,226.8z"/>
	<path class="st1" d="M245.6,216c0,3.3,0,6.5,0,9.8c-1.9,0-3.7,0-5.6,0c0-3.3,0-6.4,0-9.8C241.8,216,243.6,216,245.6,216z"/>
	<path class="st1" d="M240,236c0-3,0-6,0-9.1c1.8,0,3.6,0,5.6,0c0.2,3,0.1,6,0,9.1C243.8,236,242.1,236,240,236z"/>
	<path class="st1" d="M247,204.6c4,1,6.4,5.4,5.5,10.3c-1.7,0-3.5,0-5.5,0C247,211.5,247,208.1,247,204.6z"/>
	<path class="st1" d="M245.6,204.7c0,3.3,0,6.6,0,10.2c-1.8,0-3.6,0-5.4,0C239.1,210.2,241.6,205.3,245.6,204.7z"/>
	<path class="st1" d="M529.4,225.8c-1.8,0-3.5,0-5.5,0c0-3.3,0-6.4,0-9.7c1.8-0.5,3.6-0.3,5.4-0.1
		C529.9,217.8,529.9,223.2,529.4,225.8z"/>
	<path class="st1" d="M524,226.8c1.9,0,3.6,0,5.3,0c0.6,1.8,0.7,7,0.1,9.2c-1.7,0-3.4,0-5.4,0C524,233.1,524,230.1,524,226.8z"/>
	<path class="st1" d="M522.6,216c0,3.3,0,6.4,0,9.6c-1.9,0.5-3.7,0.3-5.7,0.1c0-3.3,0-6.4,0-9.7C518.8,216,520.6,216,522.6,216z"/>
	<path class="st1" d="M522.6,226.9c0,3.1,0,6.1,0,9.2c-1.9,0-3.7,0-5.6,0c0-3.1,0-6,0-9.2C518.9,226.9,520.6,226.9,522.6,226.9z"/>
	<path class="st1" d="M529.4,214.9c-1.9,0-3.6,0-5.5,0c0-3.5,0-6.8,0-10.2C527.7,205.1,530.3,209.9,529.4,214.9z"/>
	<path class="st1" d="M517.1,214.8c-0.8-5.2,1.4-9.3,5.6-10.2c0,1.7,0,3.3,0,5c0,1.7,0,3.3,0,5.2C520.8,214.8,519,214.8,517.1,214.8
		z"/>
	<path class="st1" d="M363,219.6c0,2.8,0,5.5,0,8.3c-1.9,0-3.6,0-5.6,0c0-2.7,0-5.5,0-8.3C359.2,219.6,361,219.6,363,219.6z"/>
	<path class="st1" d="M363.1,218.7c-2,0-3.8,0-5.8,0c0-2.8,0-5.5,0-8.3c1.8,0,3.6,0,5.7,0C363.3,213.2,363.1,215.9,363.1,218.7z"/>
	<path class="st1" d="M369.9,218.8c-1.9,0-3.6,0-5.5,0c0-2.8,0-5.5,0-8.3c1.8,0,3.6,0,5.5,0C369.9,213.1,369.9,215.8,369.9,218.8z"
		/>
	<path class="st1" d="M364.4,219.6c1.9,0,3.7,0,5.5,0c0,2.8,0,5.5,0,8.3c-1.8,0-3.6,0-5.5,0C364.4,225.3,364.4,222.6,364.4,219.6z"
		/>
	<path class="st1" d="M363.1,236.3c-2.1,0-3.9,0-5.8,0c0-2.5,0-4.7,0-7.2c1.9,0,3.6,0,5.7,0C363.3,231.4,363.1,233.8,363.1,236.3z"
		/>
	<path class="st1" d="M363,200.8c0,2.8,0,5.5,0,8.3c-1.7,0.6-3.2,0.6-5.6,0.2C356.7,205,359.1,201.2,363,200.8z"/>
	<path class="st1" d="M364.4,236.3c0-2.4,0-4.8,0-7.2c1.9,0,3.6,0,5.6,0c0,2.4,0,4.7,0,7.2C368.1,236.3,366.3,236.3,364.4,236.3z"/>
	<path class="st1" d="M364.3,200.8c3.9,0.4,6.3,4.2,5.5,8.6c-1.7,0-3.4,0-5.5,0C364.1,206.6,364.2,203.7,364.3,200.8z"/>
	<path class="st1" d="M537.8,228c0-2.7,0-5.2,0-7.8c1.5,0,2.9,0,4.5,0c0,2.6,0,5.1,0,7.8C540.8,228,539.4,228,537.8,228z"/>
	<path class="st1" d="M543.8,220.1c1.3,0,2.7,0,4.2,0c0,2.7,0,5.3,0,8c-1.5,0-2.9,0-4.3,0C543.2,225.7,543.2,221.7,543.8,220.1z"/>
	<path class="st1" d="M543.5,229c1.5,0,2.9,0,4.5,0c0,2.4,0,4.8,0,7.3c-1.5,0-2.9,0-4.5,0C543.5,233.9,543.5,231.5,543.5,229z"/>
	<path class="st1" d="M542.3,236.4c-1.6,0-2.9,0-4.5,0c-0.2-2.4-0.1-4.8,0-7.3c1.5,0,3,0,4.6,0C542.3,231.5,542.3,233.9,542.3,236.4
		z"/>
	<path class="st1" d="M548,219.3c-1.6,0-3,0-4.5,0c0-2.8,0-5.5,0-8.2C546.7,211.7,548.5,214.8,548,219.3z"/>
	<path class="st1" d="M542.4,219.3c-1.7,0-3.1,0-4.5,0c-0.8-4,0.9-7.3,4.4-8.3C542.6,213.7,542.5,216.4,542.4,219.3z"/>
	<path class="st1" d="M503,228.1c-1.6,0-3,0-4.5,0c0-2.7,0-5.2,0-8c1.5,0,2.8,0,4.5,0C503.2,222.7,503.2,225.3,503,228.1z"/>
	<path class="st1" d="M508.7,220.2c0,2.6,0,5.1,0,7.8c-1.5,0-2.9,0-4.5,0c0-2.6,0-5.1,0-7.8C505.6,220.2,507.1,220.2,508.7,220.2z"
		/>
	<path class="st1" d="M508.7,229.1c0,2.5,0,4.8,0,7.3c-1.5,0-2.9,0-4.6,0c-0.3-2.3-0.1-4.7-0.1-7.3
		C505.6,229.1,507,229.1,508.7,229.1z"/>
	<path class="st1" d="M503,229.1c0,2.5,0,4.8,0,7.3c-1.5,0-2.9,0-4.5,0c0-2.5,0-4.8,0-7.3C499.9,229.1,501.3,229.1,503,229.1z"/>
	<path class="st1" d="M508.6,219.3c-1.5,0-2.8,0-4.4,0c0-2.8,0-5.5,0-8.2C507.5,211.8,509.2,214.9,508.6,219.3z"/>
	<path class="st1" d="M503,210.9c0,2.9,0,5.5,0,8.3c-1.5,0-2.9,0-4.3,0C497.7,215.7,499.4,212.2,503,210.9z"/>
	<path class="st1" d="M226,228c-1.5,0-2.9,0-4.5,0c0-2.6,0-5.1,0-7.9c1.4,0,2.9,0,4.5,0C226,222.8,226,225.3,226,228z"/>
	<path class="st1" d="M231.7,228c-1.5,0-2.9,0-4.4,0c0-2.6,0-5.2,0-7.9c1.5,0,2.9,0,4.4,0C231.7,222.7,231.7,225.3,231.7,228z"/>
	<path class="st1" d="M227.2,229c1.6,0,3,0,4.5,0c0,2.4,0,4.8,0,7.4c-1.4,0-2.9,0-4.5,0C227.2,233.9,227.2,231.5,227.2,229z"/>
	<path class="st1" d="M221.5,229c1.6,0,2.9,0,4.5,0c0,2.5,0,4.9,0,7.4c-1.5,0-2.9,0-4.5,0C221.5,233.9,221.5,231.6,221.5,229z"/>
	<path class="st1" d="M231.7,219.3c-1.6,0-3,0-4.5,0c0-2.8,0-5.5,0-8.2C230.4,211.6,232.1,214.7,231.7,219.3z"/>
	<path class="st1" d="M226,219.3c-1.6,0-3,0-4.3,0c-0.7-4,0.9-7.3,4.3-8.3C226,213.7,226,216.4,226,219.3z"/>
	<path class="st1" d="M260.8,220.1c1.6,0,2.9,0,4.5,0c0.3,2.6,0.1,5.2,0.1,7.9c-1.6,0-3.1,0-4.7,0
		C260.8,225.4,260.8,222.9,260.8,220.1z"/>
	<path class="st1" d="M271.1,220.2c0,2.7,0,5.1,0,7.8c-1.5,0-3,0-4.6,0c0-2.6,0-5.1,0-7.8C268,220.2,269.5,220.2,271.1,220.2z"/>
	<path class="st1" d="M271.1,236.4c-1.6,0-2.9,0-4.4,0c-0.5-2.4-0.2-4.8-0.2-7.3c1.6,0,3,0,4.6,0
		C271.1,231.5,271.1,233.8,271.1,236.4z"/>
	<path class="st1" d="M265.4,229.1c0,2.4,0,4.8,0,7.3c-1.5,0-2.9,0-4.5,0c-0.4-2.4-0.2-4.8-0.1-7.3
		C262.3,229.1,263.8,229.1,265.4,229.1z"/>
	<path class="st1" d="M271.1,219.3c-1.6,0-3,0-4.5,0c0-2.8,0-5.5,0-8.1C269.7,211.6,271.4,214.6,271.1,219.3z"/>
	<path class="st1" d="M265.4,210.9c0,2.9,0,5.5,0,8.3c-1.5,0-2.9,0-4.3,0C260.1,215.7,261.8,212.2,265.4,210.9z"/>
	<path class="st1" d="M337.5,337.5c0-1.3,0-2.7,0-4.1c0-0.3,0.3-0.7,0.6-0.9c1.4-0.9,4.6,0.8,4.5,2.5c0,1-0.2,2-1.7,2.1
		C339.9,337.2,339,338.2,337.5,337.5z"/>
	<path class="st1" d="M334.5,344c0-2.7,0-5.4,0-8.1c0-0.9,0-1.7,0-2.6c0.1,0,0.3,0,0.4,0c0,3.5,0,7.1,0,10.6
		C334.8,343.9,334.6,344,334.5,344z"/>
	<path class="st1" d="M410.7,338.7c0,1.8,0,3.5,0,5.3c-0.1,0-0.2,0-0.3,0c0-1.8,0-3.5,0-5.3C410.6,338.7,410.7,338.7,410.7,338.7z"
		/>
	<path class="st1" d="M417.7,343.6c0-1.3,0-2.6,0-3.9c0.1,0,0.1,0,0.2,0c0,1.3,0,2.6,0,3.9C417.8,343.6,417.7,343.6,417.7,343.6z"/>
	<path class="st1" d="M401.5,341.6c0.4,0.9,0.5,1.8-0.3,2.4c-0.4,0.3-1.1,0.5-1.4,0.3c-0.3-0.2-0.5-1-0.4-1.4
		C399.7,342.1,400.4,341.5,401.5,341.6z"/>
	<path class="st1" d="M382.3,341.5c-0.2,0.9-0.3,1.9-0.7,2.7c-0.6,1.3-2,1.4-2.9,0.4c-1.2-1.3-1.4-4.7-0.5-6.1
		c0.7-1,1.4-1.1,2.4-0.5C381.8,338.9,382.4,340,382.3,341.5z"/>
	<path class="st1" d="M382.6,342.5c0-0.5,0-1,0-1.5c0.1,0,0.2,0,0.2,0c0,0.5,0,1.1,0.1,1.6C382.8,342.6,382.7,342.6,382.6,342.5z"/>
	<path class="st1" d="M435.6,339.6c0.6-1.6,1.5-2.2,2.7-1.9c0.3,0.1,0.8,0.6,0.8,0.9c0,0.3-0.4,0.9-0.8,0.9
		C437.6,339.7,436.8,339.6,435.6,339.6z"/>
	<path class="st1" d="M432.9,343.3c0-1.3,0-2.6,0-3.9C433.6,340.7,433.6,342,432.9,343.3z"/>
	<path class="st1" d="M351.7,339.1c0,1.5,0,3,0,4.6c-0.1,0-0.2,0-0.2,0c0-1.5,0-3,0-4.6C351.5,339.1,351.6,339.1,351.7,339.1z"/>
</g>
<g id="Layer_2">
</g>
</svg>
