<svg id="Layer_1" data-name="Layer 1" xmlns="http://www.w3.org/2000/svg" viewBox="0 0 1373.71 920.77"><defs><style>.cls-1{fill:none;stroke:#231f20;stroke-miterlimit:10;stroke-width:0.25px;}</style></defs><title>Voice-BGTYPE</title><path class="cls-1" d="M295.09,90.32V22.27h14.45V52h23.56V22.27h14.45V90.32H333.09v-31H309.54v31H295.09Z"/><path class="cls-1" d="M390.89,90.32V22.27h40.83v7.54H405.33v22.4h23.24v7.33H405.33V82.78h27.85v7.54h-42.3Z"/><path class="cls-1" d="M473,90.32V22.27h14.45V82.78H513.8v7.54H473Z"/><path class="cls-1" d="M550.34,90.32V22.27h14.45V82.78h26.38v7.54H550.34Z"/><path class="cls-1" d="M631.42,82.1q-8-9.37-8-25.7t8-25.75q8-9.42,22.77-9.42t23,9.47q8.11,9.48,8.11,25.7t-8.11,25.65q-8.11,9.42-23,9.42T631.42,82.1Zm34.34-4.61q3.51-6.54,3.51-21.1t-3.56-21q-3.56-6.59-11.52-6.6t-11.36,6.6q-3.51,6.6-3.51,21t3.45,21.1Q646.24,84,654.2,84T665.76,77.5Z"/><path class="cls-1" d="M43.06,323V262.47H24.74v-7.54H75.83v7.54H57.62V323H43.06Z"/><path class="cls-1" d="M112.58,323V254.93H127v29.73h23.56V254.93H165V323H150.59V292H127v31H112.58Z"/><path class="cls-1" d="M208.38,254.93h20.94q11.52,0,18,5.6t6.49,15.76a20.19,20.19,0,0,1-3.25,11.46,22.51,22.51,0,0,1-8.48,7.59L257.8,323H241.15l-12.77-24.71h-5.55V323H208.38V254.93Zm19.79,36.43a11.58,11.58,0,0,0,6-1.31,7.43,7.43,0,0,0,3.09-4.45,31.52,31.52,0,0,0,.94-8.69q0-8.17-2.36-11.67t-8-3.51h-5v29.63h5.34Z"/><path class="cls-1" d="M296.11,323V254.93h40.83v7.54H310.56v22.4h23.24v7.33H310.56v23.24h27.85V323h-42.3Z"/><path class="cls-1" d="M378.2,323V254.93H419v7.54H392.64v22.4h23.24v7.33H392.64v23.24h27.85V323H378.2Z"/><path class="cls-1" d="M690.71,904.63l0.84-68.05H709l19.05,50.15h0.42l18.74-50.15h16.23l0.73,68.05H750.08l-0.73-51.51H749l-19,51.51H719.29l-19-51.51H700l-0.31,51.51h-9Z"/><path class="cls-1" d="M807.55,904.63V836.58H822v68.05H807.55Z"/><path class="cls-1" d="M865.45,904.63V836.58h15L909,882.75h0.21L908.48,878V836.58h9v68.05H906.18l-32.35-51.09h-0.21l0.84,6.07v45h-9Z"/><path class="cls-1" d="M966.22,899q-6.34-6.8-6.33-19.05V836.58h14.55v40.1q0,11.31,3.09,16.23t9.68,4.92q7,0,10.36-5.13t3.35-16v-40.1h8.9v43.34q0,12.36-5.86,19.11t-19.05,6.75Q972.55,905.78,966.22,899Z"/><path class="cls-1" d="M1064.06,904.63V844.12h-18.32v-7.54h51.09v7.54h-18.22v60.51h-14.55Z"/><path class="cls-1" d="M1133.58,904.63V836.58h40.83v7.54H1148v22.4h23.24v7.33H1148v23.24h27.85v7.54h-42.3Z"/><path class="cls-1" d="M1220,903.95a22.13,22.13,0,0,1-6.86-3.93q-2.25-2.09-2.25-2.51l4-6.07a10.43,10.43,0,0,0,2,1.94,21.3,21.3,0,0,0,5.55,3.19,20.88,20.88,0,0,0,8.11,1.47q4.92,0,7.64-2.62a9.15,9.15,0,0,0,2.72-6.91,8,8,0,0,0-1.47-4.76,13.65,13.65,0,0,0-3.61-3.45q-2.15-1.41-6-3.61a62.24,62.24,0,0,1-8.27-5,21.12,21.12,0,0,1-5.55-6.28,18.34,18.34,0,0,1-2.3-9.53,20.2,20.2,0,0,1,2.83-10.78,18.57,18.57,0,0,1,7.85-7.07,25.63,25.63,0,0,1,11.41-2.46,29.1,29.1,0,0,1,7.9,1,34.69,34.69,0,0,1,6.28,2.36,18.22,18.22,0,0,1,2.57,1.41l-1.68,7.12q-0.52-.32-2.57-1.41a33.43,33.43,0,0,0-5.18-2.15,20.12,20.12,0,0,0-6.39-1,9,9,0,0,0-6.39,2.25,8.11,8.11,0,0,0-2.41,6.23,9.1,9.1,0,0,0,2.83,7,43.06,43.06,0,0,0,8.69,5.76,74,74,0,0,1,8.37,5.13,19.76,19.76,0,0,1,5.39,6.23,19.45,19.45,0,0,1,2.25,9.79,18.81,18.81,0,0,1-3.19,11,20.55,20.55,0,0,1-8.64,7.07,29.18,29.18,0,0,1-12.15,2.46A31.39,31.39,0,0,1,1220,903.95Z"/></svg>