<svg id="Layer_1" data-name="Layer 1" xmlns="http://www.w3.org/2000/svg" viewBox="0 0 1366 1324"><defs><style>.cls-1{fill:none;stroke:#000;stroke-miterlimit:10;stroke-width:3.9px;}</style></defs><title>Untitled-1</title><path class="cls-1" d="M455.46,300V188.87h23.6v48.57h38.48V188.87h23.6V300h-23.6V249.41H479.06V300Z"/><path class="cls-1" d="M567.47,300V188.87h66.7v12.31h-43.1v36.6h38v12h-38v38h45.49V300Z"/><path class="cls-1" d="M657.08,300V188.87h23.6v98.85h43.1V300Z"/><path class="cls-1" d="M739,300V188.87h23.6v98.85h43.1V300Z"/><path class="cls-1" d="M827,286.6q-13.08-15.3-13.08-42T827,202.55q13.08-15.39,37.2-15.39,24.28,0,37.54,15.48t13.25,42q0,26.51-13.25,41.9t-37.54,15.39Q840.06,301.91,827,286.6Zm56.09-7.52q5.73-10.69,5.73-34.46,0-23.6-5.81-34.37t-18.81-10.77q-12.83,0-18.55,10.77t-5.73,34.37q0,23.77,5.64,34.46t18.64,10.69Q877.34,289.77,883.07,279.08Z"/><path class="cls-1" d="M86.61,662V563.18H56.68V550.87h83.46v12.31H110.38V662Z"/><path class="cls-1" d="M155.7,662V550.87h23.6v48.57h38.48V550.87h23.6V662h-23.6V611.41H179.3V662Z"/><path class="cls-1" d="M267.71,550.87h34.2q18.81,0,29.41,9.15t10.6,25.74a33,33,0,0,1-5.3,18.73,36.78,36.78,0,0,1-13.85,12.4L348.43,662H321.24l-20.86-40.36h-9.06V662h-23.6ZM300,610.38q6.33,0,9.83-2.14t5-7.27q1.54-5.13,1.54-14.2,0-13.34-3.85-19.07T299.52,562h-8.21v48.4Z"/><path class="cls-1" d="M366.56,662V550.87h66.7v12.31h-43.1v36.6h38v12h-38v38h45.49V662Z"/><path class="cls-1" d="M456.17,662V550.87h66.7v12.31h-43.1v36.6h38v12h-38v38h45.49V662Z"/><path class="cls-1" d="M649.46,1069l1.37-111.16h28.56l31.12,81.92h.68l30.61-81.92h26.51l1.2,111.16H746.42l-1.2-84.14h-.51l-31,84.14H696.14l-31-84.14h-.51l-.51,84.14Z"/><path class="cls-1" d="M795.84,1069V957.87h23.6V1069Z"/><path class="cls-1" d="M846,1069V957.87h24.46l46.69,75.42h.34l-1.2-7.7V957.87h14.71V1069H912.47l-52.84-83.45h-.34l1.37,9.92V1069Z"/><path class="cls-1" d="M966.09,1059.79q-10.35-11.12-10.35-31.12v-70.8h23.77v65.5q0,18.47,5,26.51t15.82,8q11.46,0,16.93-8.38t5.47-26.17v-65.5h14.54v70.8q0,20.18-9.58,31.21t-31.12,11Q976.43,1070.91,966.09,1059.79Z"/><path class="cls-1" d="M1081.43,1069V970.18h-29.93V957.87H1135v12.31h-29.76V1069Z"/><path class="cls-1" d="M1150.52,1069V957.87h66.7v12.31h-43.1v36.6h38v12h-38v38h45.49V1069Z"/><path class="cls-1" d="M1247.14,1067.91q-7.53-3-11.2-6.41t-3.68-4.11l6.5-9.92q0,.34,3.33,3.16a34.79,34.79,0,0,0,9.06,5.21,34.12,34.12,0,0,0,13.25,2.39q8,0,12.48-4.28a14.94,14.94,0,0,0,4.45-11.29,13,13,0,0,0-2.39-7.78,22.31,22.31,0,0,0-5.9-5.64q-3.51-2.31-9.83-5.9a101.45,101.45,0,0,1-13.51-8.21,34.48,34.48,0,0,1-9.06-10.26q-3.76-6.32-3.76-15.56a33,33,0,0,1,4.62-17.62,30.36,30.36,0,0,1,12.83-11.54,41.87,41.87,0,0,1,18.64-4,47.48,47.48,0,0,1,12.91,1.71,56.65,56.65,0,0,1,10.26,3.85,29.85,29.85,0,0,1,4.19,2.31l-2.74,11.63q-.86-.51-4.19-2.31a54.48,54.48,0,0,0-8.46-3.51,32.83,32.83,0,0,0-10.43-1.71q-6.5,0-10.43,3.68T1260.14,982q0,7.18,4.62,11.46t14.19,9.41a120.92,120.92,0,0,1,13.68,8.38,32.3,32.3,0,0,1,8.81,10.18q3.68,6.41,3.68,16a30.73,30.73,0,0,1-5.22,18,33.57,33.57,0,0,1-14.11,11.54,47.68,47.68,0,0,1-19.84,4Q1254.67,1070.91,1247.14,1067.91Z"/></svg>