<svg id="Layer_1" data-name="Layer 1" xmlns="http://www.w3.org/2000/svg" viewBox="0 0 426.4 216.6"><title>logo-dark</title><g id="Layer_1-2" data-name="Layer 1"><polygon points="403.6 109.4 403.4 39.4 293.4 40.1 295.4 108.1 267.1 108.1 265.9 25.4 156.6 25.4 156.6 108.1 128.1 108.1 128.1 41.4 18.5 41.4 18.5 106.7 29.4 210.1 381.4 210.1 403.6 109.4" style="fill:#fff"/><path d="M156.2,83.6V32.1H265.9V83.6c9.4,0.1,18.5.1,28,0V49.8H403.6v83.5c0,2.6.1,5.3,0,7.9-0.2,3.8,1.6,6.5,4.4,8.6a82.48,82.48,0,0,0,8.6,5.3c2.3,1.3,4.7,2.4,7.1,3.5a4.25,4.25,0,0,1,2.7,4.3c-0.1,1.8,0,3.7,0,5.5s-0.2,2-2.1,2c-6.3,0-12.6,0-19,.1h-2.6v45.6c-2,.5-377.8.7-381.7,0.2V170.6c-1.1-.1-1.9-0.1-2.8-0.2H3.1c-2.8,0-3.1-.3-3.1-3.2,0-2.1.1-4.2,0-6.2a2.75,2.75,0,0,1,1.7-2.9c2.8-1.4,5.6-2.7,8.4-4.2a56,56,0,0,0,6.1-3.8c1.9-1.3,2.5-3.3,2.5-5.7q-0.15-44.25-.1-88.5V50c1.9-.6,105.2-0.8,109.8-0.3,0.4,11.1,0,22.2.3,33.7C137.7,83.7,146.7,83.7,156.2,83.6Zm44.4,118.7a1.76,1.76,0,0,1,.5.4,5.47,5.47,0,0,0,9-.2,3.63,3.63,0,0,0,0-4,5.67,5.67,0,0,0-7.6-1.6,5.55,5.55,0,0,0-1.1,1.7,1.27,1.27,0,0,0-.9.4C199.8,199.9,200,201.1,200.6,202.3Zm58-4a3.88,3.88,0,0,0,0,3.9c0.9,2.3,2.7,2.9,4.9,2.7,1.4-.2,3.1,0,3.6-2.4a3.63,3.63,0,0,1-5,.4,2.9,2.9,0,0,1-1-3.3c1.5,0,2.8.1,4.2,0s1.9-1.1,1.1-2.3a2.84,2.84,0,0,0-1.6-1.3,12.11,12.11,0,0,0-3.8,0C259.9,196.3,258.7,196.8,258.6,198.3ZM147.1,149.9v-0.4c0.7-.2,1.4-0.5,2.2-0.7a34.45,34.45,0,0,0,8.9-4.2c5-3.5,6.3-7.2,4.7-13.1-1-3.7-3.2-6.3-6.9-7.3a50.56,50.56,0,0,0-8.6-1.8c-6.5-.8-13.1,0-19.6.2a60,60,0,0,0-8.5,1.2,8.93,8.93,0,0,0-2.9,1.5,1.65,1.65,0,0,0-.5,2.3c0.3,0.4,1.3.2,1.9,0.3a4.33,4.33,0,0,1,.5-0.1,2.29,2.29,0,0,1,3,1.9,16.15,16.15,0,0,1,.2,3.1v35.5c0,3.6-.8,6.8-4.6,8.4a1.86,1.86,0,0,0-.7,1.6,2,2,0,0,0,1.2,1.2,6.08,6.08,0,0,0,1.9.1l17,0.3c1,0,2.1.1,3.1,0.2,0.8,0,1.5,0,1.6-1s-0.1-1.8-1.1-2.1a5.27,5.27,0,0,0-1.2-.3c-2.2-.1-3.3-1.5-3.9-3.4a9.37,9.37,0,0,1-.6-2.8c-0.1-5-.2-9.9-0.2-14.9a10.87,10.87,0,0,1,.4-2.6,2.58,2.58,0,0,1,2.5-2.2,38.46,38.46,0,0,1,4.8-.1c5,0.4,9.7,4.7,10.2,9.6a59.06,59.06,0,0,1-.1,8.4,43.21,43.21,0,0,0-.3,5,6.4,6.4,0,0,0,6.6,5.9c2.2,0,4.5.1,6.7,0a16.34,16.34,0,0,0,3.7-.8,3,3,0,0,0,1.4-1.7c0.3-1-.6-1.4-1.4-1.6-2.5-.8-3.4-2.8-3.6-5.2-0.2-2-.2-4-0.5-6a51.23,51.23,0,0,0-1.4-6.8,7.3,7.3,0,0,0-4.8-5c-2.3-.7-4.6-1.3-6.9-1.9C149.9,150.4,148.5,150.2,147.1,149.9ZM300,154a2.19,2.19,0,0,0-.5.3c-0.4-.5-0.7-1-1.1-1.5-1.7-2-3.4-4.1-5.1-6.1-6.4-7.6-12.8-15.2-19.1-22.8-0.8-1-1.6-1.9-3.2-1.7a46.63,46.63,0,0,1-11.2,0,16.17,16.17,0,0,0-3.8.2,1.82,1.82,0,0,0-1.1,1,2.63,2.63,0,0,0,.6,1.5,1.51,1.51,0,0,0,.8.4c3.1,1.3,4.3,3.5,4.3,6.9-0.2,12.6-.1,25.3-0.1,37.9V172a3.68,3.68,0,0,1-3.1,3.7c-0.6.2-1.3,0.3-1.9,0.5a2,2,0,0,0-1.6,2.1c0.2,1.1,1.2,1.2,2.1,1.1h14.9a4.8,4.8,0,0,0,1.2,0c0.6-.3,1.5-0.6,1.6-1.1a1.85,1.85,0,0,0-.7-1.8,5.85,5.85,0,0,0-2.8-1.2c-3.2-.3-4.3-0.8-4.4-4.8V137.6c0-.6.1-1.2,0.1-2.2a21.66,21.66,0,0,1,1.7,1.9l12,15L300,177.8c0.8,1,1.6,1.9,3,1.4a3.13,3.13,0,0,0,2.2-3.3V132c0-1,.1-2.1.2-3.1a3.5,3.5,0,0,1,2.9-3.1l1.4-.3c1.5-.4,2.2-1.2,2.1-2.2-0.3-1.5-1.5-1.1-2.5-1.1H294.9a2.46,2.46,0,0,0-1.2.1,3.18,3.18,0,0,0-1.5.9,2.09,2.09,0,0,0,.4,1.7,4.84,4.84,0,0,0,3.6,1.6c2.9,0.3,3.6.9,3.8,3.8v21.8A4,4,0,0,1,300,154Zm22.1-3.5c0.2,2.2.3,4.5,0.7,6.7,2.2,10.6,8.1,17.9,18.9,20.7a43.86,43.86,0,0,0,8.1,1.1,21.21,21.21,0,0,0,13.3-3.9,30.6,30.6,0,0,0,12.6-31c-2-10-12.1-22.1-24.5-22.8-9-.5-16.7,2.2-22.3,9.6A32.36,32.36,0,0,0,322.1,150.5ZM212.2,179.6v0.2H234c2.3,0,2.6-.2,2.9-2.5,0.4-2.9.7-5.9,1.1-8.8a7.08,7.08,0,0,0,.1-1.4,1.28,1.28,0,0,0-2.2-1,6.28,6.28,0,0,0-1.1,1.2c-1.4,1.6-2.8,3.3-4.3,4.8a7.2,7.2,0,0,1-4.1,2.2,46.22,46.22,0,0,1-11.7.9c-4.5,0-6.6-1.8-7.2-6.3a15.48,15.48,0,0,1-.1-2.2V156.1a11,11,0,0,1,.2-2.6c0.4-2.2.9-2.8,3.1-2.9,2.6-.1,5.1,0,7.7.1a4.5,4.5,0,0,1,4.4,3.7c0.1,0.5.2,0.9,0.3,1.4,0.3,1.2,1.2,1.4,2.2,1.4a1.48,1.48,0,0,0,1.4-1.6,9.63,9.63,0,0,0,0-1.7v-9.8a9.63,9.63,0,0,0,0-1.7,1.55,1.55,0,0,0-1-1.2,1.74,1.74,0,0,0-1.4.5,14.94,14.94,0,0,0-1.3,2.5,4.7,4.7,0,0,1-4.7,3.1c-2.3-.1-4.6.1-7,0.1-2.9,0-4-1.1-4-4.1V130.8a9.7,9.7,0,0,1,.1-1.7c0.4-2.4,1.1-3.2,3.5-3.5a47.67,47.67,0,0,1,13.6,0,6.16,6.16,0,0,1,4.3,2.3c1,1.2,1.9,2.4,2.8,3.5,0.5,0.6,1.3,1.3,2,.8a2.34,2.34,0,0,0,.8-1.8c0.1-2.1.1-4.2,0-6.2s-0.4-2.5-2.6-2.5c-4.1,0-8.2.2-12.2,0.2-6.9,0-13.7,0-20.6-.1-2.7,0-5.4-.1-8.2,0a8.52,8.52,0,0,0-2.3.4c-1.2.5-1.3,1.3-.3,2.1a7.24,7.24,0,0,0,2.3,1.2,4.76,4.76,0,0,1,3.5,3.6,13.86,13.86,0,0,1,.6,4c0,11.4,0,22.7.1,34.1a9,9,0,0,1-2.6,6.7,19.1,19.1,0,0,1-3.2,2.4,1.82,1.82,0,0,0-1.1,1.9,1.53,1.53,0,0,0,1.7,1.3h1.7C198.3,179.6,205.3,179.6,212.2,179.6ZM76.9,126.1c4.2-1.4,11.1-.3,14.2,2.3a8,8,0,0,1,2.4,3.8,16.08,16.08,0,0,0,1.5,3.3c0.4,0.7,1.1,1.4,1.9.9a2.66,2.66,0,0,0,1-3.3c-0.4-2.4-.8-4.7-1.1-7.1-0.4-3.3-1-3.9-4.3-3.9-8.3.1-16.6,0.3-24.9,0.4-6.3,0-12.6-.1-19-0.1-2.2,0-2.5.2-3.2,2.3a9.36,9.36,0,0,0-.4,1.6c-0.3,1.7-.6,3.5-0.8,5.2-0.1,1-.2,2.1-0.3,3.1a1.25,1.25,0,0,0,1.2,1.5,2,2,0,0,0,1.5-.8,15.22,15.22,0,0,0,1.6-4,6.43,6.43,0,0,1,4.2-4.8,22.31,22.31,0,0,1,12-.8,1.06,1.06,0,0,1,.6.4c0,0.6.1,1.3,0.1,1.9v41.5a19.27,19.27,0,0,1-.1,2.4,4.38,4.38,0,0,1-3.5,4.3,8.49,8.49,0,0,0-2.2.9c-0.4.3-.9,1-0.7,1.3a1.79,1.79,0,0,0,1.3,1.1,21.64,21.64,0,0,0,3.6,0,69.68,69.68,0,0,1,13.7,0,25.67,25.67,0,0,0,4.8.1,1.87,1.87,0,0,0,1.4-1,2.06,2.06,0,0,0-.8-1.5,7.26,7.26,0,0,0-2.2-.9,4.26,4.26,0,0,1-3.3-4c-0.1-1.4-.2-2.9-0.2-4.3V126.1ZM222,96.9c0-1,.1-1.8.1-2.5v-36a13.17,13.17,0,0,0-3-8.7,8.66,8.66,0,0,0-13.6,0,12.4,12.4,0,0,0-3,8.4V94.6a17.85,17.85,0,0,0,.2,2.3H222Zm20.9-.3a8.87,8.87,0,0,0,.2-1.5c0-9.4.1-18.9,0-28.3a11.88,11.88,0,0,0-1.4-5.2,6.5,6.5,0,0,0-6.2-3.8,7,7,0,0,0-6.1,4,11.5,11.5,0,0,0-1.3,5.8V94c0,0.9.1,1.7,0.1,2.7C233.2,96.6,238,96.6,242.9,96.6Zm-163.6,0a8.38,8.38,0,0,0,.2-1V71.8a14.49,14.49,0,0,0-1.7-6.7c-2.7-5.1-9-5-11.7,0A14.1,14.1,0,0,0,64.4,72V94.8a11.14,11.14,0,0,0,.2,1.7C69.5,96.6,74.3,96.6,79.3,96.6Zm262.1-.1h14.7c0.1-.3.3-0.5,0.3-0.6,0-8.2.1-16.5,0-24.7a12,12,0,0,0-2.3-7,6.06,6.06,0,0,0-4.8-2.8c-3.1-.2-5,1.4-6.4,3.9a13.75,13.75,0,0,0-1.6,6.9V94.8C341.3,95.3,341.4,95.9,341.4,96.5Zm-144.9.1a4.5,4.5,0,0,0,.2-0.8V66a8.38,8.38,0,0,0-1.9-5.3,6.78,6.78,0,0,0-11.1-.2,9.89,9.89,0,0,0-2,6.3V94.6c0,0.6.1,1.2,0.1,2h14.7Zm178.2-.2c0-6.9.1-13.6-.1-20.2a12,12,0,0,0-1.5-5.2,5.09,5.09,0,0,0-9.1-.1,12.11,12.11,0,0,0-1.5,6.2V94.8a8.75,8.75,0,0,0,.2,1.6h12Zm-39.6,0a3.71,3.71,0,0,0,.2-0.9c0-6.4.1-12.8-.1-19.2a13.57,13.57,0,0,0-1.2-4.8,5.23,5.23,0,0,0-9.8,0A17.5,17.5,0,0,0,323,77c-0.1,5.8-.1,11.7,0,17.5,0,0.5.1,1.1,0.1,1.7C327.2,96.4,331.1,96.4,335.1,96.4Zm-277,0a3.93,3.93,0,0,0,.2-0.6c0-6.5.1-13.1,0-19.6A11.88,11.88,0,0,0,57,71.4a5.16,5.16,0,0,0-4.7-3.2c-2.4,0-3.8,1.3-4.9,3.2a11.74,11.74,0,0,0-1.3,5.8V94.7c0,0.5.1,1.1,0.1,1.7H58.1Zm27.4,0.1c4.2,0,8.2.1,12.2-.1,0-7.1.1-13.9-.1-20.6a10.67,10.67,0,0,0-1.7-5.1,5,5,0,0,0-8.7-.1A11,11,0,0,0,85.5,77V87.5C85.5,90.4,85.5,93.3,85.5,96.5Zm86.3,108a7.43,7.43,0,0,1-1-2.7c0-2.4-1-3.9-3.5-4.4a0.7,0.7,0,0,1-.2-0.4,5.9,5.9,0,0,1,.8-0.4c2.2-1.2,2.7-2,2.3-3.7-0.3-1.5-1.2-2.3-3.4-2.4s-4.6,0-6.9.1a4.33,4.33,0,0,0-1.1.4,7.19,7.19,0,0,1,.9,2.4,56.09,56.09,0,0,1,0,5.8c0,1.8.3,3.7-1.3,5.5h6c-2.4-2-1.3-4.5-1.4-6.8,3.7-1,5.5.8,5,5.3a3.83,3.83,0,0,0-.5-1.1,1.64,1.64,0,0,0,.7,2.4A3.82,3.82,0,0,0,171.8,204.5Zm62.3,0.1h5.8c-2-1.9-1.2-4-1.2-6a1.55,1.55,0,0,1,1.6-1.7,1.78,1.78,0,0,1,2,1.3,6.19,6.19,0,0,1-1.5,6.5h5.6a21.55,21.55,0,0,1-.8-2.9,16.13,16.13,0,0,1,0-2.2c0-3-.8-3.7-3.7-3.7a15.17,15.17,0,0,0-2.1.3,4.91,4.91,0,0,1-1.1.1c-1.4-1.5-2.6,0-3.9.1C236.2,198.7,235.9,202.8,234.1,204.6Zm-2.2-1c-2-.1-1.6-1.2-1.7-2.2v-2.2c0-2.9-.5-3.3-3.3-3.3a4,4,0,0,0-1.9.2,4.63,4.63,0,0,0-2.1,1.8c-0.6.9-.1,1.6,1,1.7,0.9-2.6,1.4-3.1,2.5-2.6,1.3,0.5,1.1,1.5.7,2.5-3.9,1.7-4.5,2.6-3.5,5.5,1.2-.4,2.4-0.7,3.6-1.1C228.6,205,230,205.1,231.9,203.6Zm22.2-11.8-4.6,4.6a21.05,21.05,0,0,1,2.5-.2c0.1,1.4,0,2.7.2,3.9a3.26,3.26,0,0,1-2.3,4,0.88,0.88,0,0,0-.2.6h5.8a8,8,0,0,1-1.1-2.3,50,50,0,0,1-.1-5.5c0.9,0.1,1.6.1,2.5,0.2-0.2-1.7-1.7-.7-2.4-1.6C254.3,194.4,254.2,193.2,254.1,191.8Zm-37.7,5.9c0.9,0.2,1.6.1,1.8,0.4,0.6,0.6,1.1.7,1.6,0.1a2.16,2.16,0,0,0,.4-1.4,2.24,2.24,0,0,0-1.5-.8,6.48,6.48,0,0,0-2.1.7c-0.4-.8-0.9-1.4-2-0.7a22.24,22.24,0,0,1-2.5,1.1c0.9,0.4,1.4.5,1.8,0.7V203c-0.8.5-1.5,0.9-2.2,1.3a2.27,2.27,0,0,1,.1.4h5.8C215.5,202.6,216.5,200.3,216.4,197.7Zm-21.5-1.6a25.74,25.74,0,0,1-.1,6.8c0,0.1-.5.1-0.7,0.3-0.5.4-1.1,0.8-2,1.5h6.3c-0.5-.7-1.2-1.2-1.2-1.8-0.1-2-.1-4-0.1-6.1,1.9,0.4,1.9.4,2.3-.7-0.7-.2-1.5-0.3-2.2-0.5-0.1-1.2-.2-2.4-0.2-3.2-1.3,1.4-2.7,2.8-3.8,4A5.45,5.45,0,0,1,194.9,196.1Zm-9.3,1.2c1.5-1.9,2.7-.1,3.9.4,0.8-.9.5-1.5-0.4-1.7a12.17,12.17,0,0,0-3.3-.1,2.45,2.45,0,0,0-2.2,2.2c-0.1,1.4.8,1.9,2,2.3a30.54,30.54,0,0,1,3.2,1.3c-0.6,2.9-2.1,3.2-4.8,1.1-0.8.6-.9,1.3,0.1,1.5a7.31,7.31,0,0,0,3.3.3,3.48,3.48,0,0,0,3.4-2.8c0.2-1.4-.6-2.2-2.8-3C187,198.6,186,198.6,185.6,197.3Zm-9.5-.7c0.3,2.9,1.5,5.6-1.2,8.1h6.2c-1.9-1.1-1.5-2.7-1.6-4.1v-5C178.1,195.9,177.1,196.3,176.1,196.6Zm95.8,2.1c2.6,0.7,9.4.7,11,0C281.3,198.1,274.4,198.1,271.9,198.7Zm-130.4.3c2.9,0.8,9.6.6,10.8-.1C150.4,198.3,143.7,198.3,141.5,199Zm36.2-7.4a4,4,0,0,0-1,1.5,1.3,1.3,0,0,0,1.5,1.4,1.24,1.24,0,0,0,1.3-1.4C179.6,192.3,178.9,191.6,177.7,191.6Z" style="fill:#af8417"/><path d="M210.7,30.9c-17.1,0-34.2-.1-51.3.1-2.7,0-4.9-.4-6.7-2.7a47.84,47.84,0,0,0-3.9-3.9c-1.3-1.3-2.4-2.7-1.6-4.7a4.3,4.3,0,0,1,4.5-2.4,6.15,6.15,0,0,1,1.4.1,12.68,12.68,0,0,0,9.3-2.9c5.1-3.8,10.5-7.3,15.5-11.2A16.14,16.14,0,0,1,188.7,0c16.2,0.2,32.4.1,48.7,0a4.11,4.11,0,0,1,2.6.9c5.4,3.9,10.8,7.7,16.2,11.5,1.7,1.2,3.4,2.3,5.2,3.5a8,8,0,0,0,5,1.5H271a3.09,3.09,0,0,1,3.2,2,3.66,3.66,0,0,1-.6,4c-2.3,2.4-4.8,4.7-7.3,7a3.81,3.81,0,0,1-1.5.5,12.05,12.05,0,0,1-1.9,0H210.7Z" style="fill:#af8417"/><path d="M73.2,48.7h-53a4.64,4.64,0,0,1-3.8-1.5A68.92,68.92,0,0,0,10.8,42c-1.2-1.1-2-2.4-1.3-4a4.19,4.19,0,0,1,4-2.5h0.2c5.3,0.9,9.4-1.4,13.4-4.4,5.1-3.8,10.4-7.4,15.6-11.2a8.57,8.57,0,0,1,5.1-1.6c17.3,0.1,34.5.1,51.8,0a6.12,6.12,0,0,1,3.9,1.3c4.9,3.6,10,6.9,15,10.4,1.7,1.2,3.4,2.4,5,3.7a8.33,8.33,0,0,0,6,1.9c1.1-.1,2.2-0.1,3.4-0.2a3.23,3.23,0,0,1,3.5,2,3.37,3.37,0,0,1-.7,4.2c-1.4,1.4-3,2.6-4.5,4a3.53,3.53,0,0,0-1.4,1.3c-1,2-2.7,1.9-4.5,1.9C108.1,48.7,90.6,48.7,73.2,48.7Z" style="fill:#af8417"/><path d="M349,48.7H296a4.82,4.82,0,0,1-4-1.6,27.86,27.86,0,0,0-4.2-3.5,6.48,6.48,0,0,1-2.6-4.2c-0.4-2.3.7-3.8,3-3.9a19.27,19.27,0,0,1,2.4.1,9.46,9.46,0,0,0,6.4-1.3c3.9-2.5,7.7-5.1,11.6-7.7s7.8-5.3,11.7-7.9a5.14,5.14,0,0,1,2.5-.6h52.8a4.72,4.72,0,0,1,3.2,1.2c7.3,5.3,14.7,10.4,22.1,15.6a6.32,6.32,0,0,0,5.5.9c2.7-.7,4.2-0.2,5.1,1.3a4.69,4.69,0,0,1-.9,5.5,62.79,62.79,0,0,1-5.9,5.6,4.16,4.16,0,0,1-2.5.4H371C363.8,48.7,356.4,48.7,349,48.7Z" style="fill:#af8417"/><path d="M200.6,202.3c0.1-.9.2-1.9,0.3-2.8,0,1.1.1,2.1,0.1,3.2A0.54,0.54,0,0,0,200.6,202.3Z" style="fill:#bd9c75"/><path d="M133.9,137.7c0-2.2-.1-4.3,0-6.5,0.1-3.5,1.6-5.1,5.1-5.5,5.1-.6,9.3,1.9,10.9,6.6a10.51,10.51,0,0,1-4.2,12.8,19.93,19.93,0,0,1-8.1,2.7c-2.1.3-3.6-1.1-3.7-3.4s0-4.5,0-6.7h0Z" style="fill:#af8417"/><path d="M121.2,125.7a4.08,4.08,0,0,1,3.9,3.6,23.48,23.48,0,0,1,.1,2.6v37.6a9.16,9.16,0,0,1-3.4,7.1,0.76,0.76,0,0,1-.4.2h-0.7a3.37,3.37,0,0,1,.6-1.2,10.69,10.69,0,0,0,2.1-6.7c-0.1-11.9,0-23.8,0-35.7C123.4,130.5,123.7,127.8,121.2,125.7Z" style="fill:#bd9c75"/><path d="M145.3,125.3c4.9-.3,9.2,5.2,9.2,11.2,0,5.7-4.6,11.1-9.9,11.2a7.44,7.44,0,0,1,1.2-.9,12,12,0,0,0,4-18.3,16.44,16.44,0,0,0-3.3-2.6A4.49,4.49,0,0,0,145.3,125.3Z" style="fill:#bd9c75"/><path d="M149.7,152.8c1.6,0,2.4,1.1,3.1,2.2a15.45,15.45,0,0,1,2.5,8.1q0.15,3.6,0,7.2c-0.1,2.6,0,5.1,2.3,7.1-2.4-.5-3.4-1.3-3.6-3.3-0.2-1.6-.2-3.2-0.3-4.8-0.1-2.5-.1-4.9-0.3-7.4C153.1,158.6,152.4,155.3,149.7,152.8Z" style="fill:#bd9c75"/><path d="M260.5,125.5a3.92,3.92,0,0,1,3.3,3.5,14.77,14.77,0,0,1,.1,2.1v39.1c0,2.5-.6,4.6-2.6,6.1-0.2.1-.4,0.3-0.6,0.4a1.49,1.49,0,0,1-.7,0,12.74,12.74,0,0,1,.7-1.2A9.56,9.56,0,0,0,262,170c0-9.8,0-19.5.1-29.3,0-2.6,0-5.1.1-7.7A10.85,10.85,0,0,0,260.5,125.5Z" style="fill:#bd9c75"/><path d="M301.3,175.5l-2.1-2.1c-10-12.4-19.9-24.8-29.9-37.2-0.9-1.1-1.8-2.3-2.7-3.4a3.55,3.55,0,0,1-.6-3.3c12,15.1,23.7,29.8,35.4,44.6a4.18,4.18,0,0,1,.4,1A1.76,1.76,0,0,0,301.3,175.5Z" style="fill:#bd9c75"/><path d="M335.1,150.4c-0.2-8.5,1.8-15.6,6.3-21.8s11.5-6,16.2-.1a25.79,25.79,0,0,1,4.3,9c3,9.9,3.2,19.7-.7,29.4a26.87,26.87,0,0,1-2.8,5.3c-2.7,3.8-6.4,4.8-10.8,3.3a13.22,13.22,0,0,1-6.2-4.7,31.42,31.42,0,0,1-5-12.1C335.7,155.6,335.4,152.6,335.1,150.4Z" style="fill:#af8417"/><path d="M336.7,126.4c-7.6,6.5-11.1,14.4-11,23.9s2.9,17.6,10.3,23.9a8.26,8.26,0,0,1-1.3-.7c-5.7-4.3-8.9-10.2-10.2-17.1-2.2-11.5,1-21.3,9.9-29.1,0.4-.3.7-0.6,1.1-0.9h1.2Z" style="fill:#bd9c75"/><path d="M358.6,126.7c0.6,0.6,1.2,1.1,1.8,1.7a23.42,23.42,0,0,1,4.3,7.7c3.8,10.2,4.1,20.4-.1,30.6a21.72,21.72,0,0,1-4.4,7.1,17.1,17.1,0,0,1-1.4,1.1,2.6,2.6,0,0,1-.3-0.7c4-4.1,5.5-9.3,6.6-14.6a46.19,46.19,0,0,0-1.8-23.6,20.69,20.69,0,0,0-4.6-8c-0.2-.2-0.3-0.5-0.5-0.7A0.92,0.92,0,0,1,358.6,126.7Z" style="fill:#bd9c75"/><path d="M195.2,125.5a3.38,3.38,0,0,1,2.8,3,27.11,27.11,0,0,1,.4,4v35.7c0,4.1-1.6,6.2-5.9,7.4,0.5-.5,1.1-0.9,1.6-1.4a6.5,6.5,0,0,0,2.5-5.4c-0.1-11.5,0-23,0-34.5C196.6,131.3,196.9,128.3,195.2,125.5Z" style="fill:#bd9c75"/><path d="M234.8,170.7c0.4,3.1.2,3.5-2.3,4.4a14.36,14.36,0,0,1-3.6.7c0.6-1.3,2-1.7,2.9-2.5S233.7,171.6,234.8,170.7Z" style="fill:#bd9c75"/><path d="M232.3,129.6a21.73,21.73,0,0,0-2.3-3c-0.8-.8-1.8-1.4-2.6-2.3a8.81,8.81,0,0,1,5.1,3.1A1.24,1.24,0,0,1,232.3,129.6Z" style="fill:#bd9c75"/><path d="M221.8,149.3c0.8-.8,1.5-1.3,2.3-2.1,0.6,1.6.2,3,.4,4.5C223,151.4,222.8,150.2,221.8,149.3Z" style="fill:#bd9c75"/><path d="M68.6,126.1V168a24.21,24.21,0,0,1-.7,5.4,4.8,4.8,0,0,1-3,3.4,2.68,2.68,0,0,1,.2-1.1,14.26,14.26,0,0,0,1.8-7.8v-39a17,17,0,0,1,.1-2.2C66.9,125.9,67.5,125.9,68.6,126.1Z" style="fill:#bd9c75"/><path d="M94.9,129.6c-1.7-1.5-3-2.6-4.5-4a8.11,8.11,0,0,1,3.8.1C94.4,126.9,94.6,128,94.9,129.6Z" style="fill:#bd9c75"/><path d="M50.8,125.5c-1.6,1.1-2.9,2.1-4.2,3.1C46.3,125.3,47.2,124.6,50.8,125.5Z" style="fill:#bd9c75"/><path d="M220.5,72.3c-0.9,0-1.7.1-2.4,0.1h-4.9V61.5a35.31,35.31,0,0,1,7.3-.1C220.5,65.1,220.5,68.6,220.5,72.3Z" style="fill:#bd9c75"/><path d="M213.1,73.5h7.5V84.4c-2.3.2-4.7,0.1-7.1,0.1a6.31,6.31,0,0,1-.4-0.9V73.5Z" style="fill:#bd9c75"/><path d="M211.4,72.3h-7.3V61.6c2.4-.6,4.7-0.1,7-0.3C211.7,63,211.9,68.7,211.4,72.3Z" style="fill:#bd9c75"/><path d="M211.5,73.5V84.3h-7.4V73.5h7.4Z" style="fill:#bd9c75"/><path d="M213.2,49c4.8,0.3,8.1,5.4,7.2,11.2h-7.2V49Z" style="fill:#bd9c75"/><path d="M220.5,95h-7.3V85.6h7.3V95Z" style="fill:#bd9c75"/><path d="M211.5,95h-7.4V85.6a36.59,36.59,0,0,1,7.4,0V95Z" style="fill:#bd9c75"/><path d="M204.2,60.2c-0.8-5.9,2.5-10.9,7.3-11.2V60.2h-7.3Z" style="fill:#bd9c75"/><path d="M241.9,77.7h-5.6V69.3h5.6v8.4Z" style="fill:#bd9c75"/><path d="M236.2,86.9V78.6H242a76.58,76.58,0,0,1,0,8.3h-5.8Z" style="fill:#bd9c75"/><path d="M229.3,87V78.6h5.6v8.2C233.2,87.3,231.4,87,229.3,87Z" style="fill:#bd9c75"/><path d="M229.3,69.3h5.6v8.3h-5.6V69.3Z" style="fill:#bd9c75"/><path d="M241.9,88v7.2h-5.6a34.57,34.57,0,0,1-.1-7.2h5.7Z" style="fill:#bd9c75"/><path d="M241.7,68.3h-5.5V59.9C239.7,59.5,242.6,63.9,241.7,68.3Z" style="fill:#bd9c75"/><path d="M229.3,95.2V88h5.6v7.2h-5.6Z" style="fill:#bd9c75"/><path d="M234.9,68.3h-5.5c-0.8-4.6,1.6-8.3,5.5-8.6v8.6Z" style="fill:#bd9c75"/><path d="M78.2,84.7H72.5V74.9h5.7v9.8Z" style="fill:#bd9c75"/><path d="M72.6,85.7h5.7c0.1,3,.1,6,0,9.2H72.6V85.7Z" style="fill:#bd9c75"/><path d="M71.2,74.9v9.8H65.6V74.9h5.6Z" style="fill:#bd9c75"/><path d="M65.6,94.9V85.8h5.6c0.2,3,.1,6,0,9.1H65.6Z" style="fill:#bd9c75"/><path d="M72.6,63.5c4,1,6.4,5.4,5.5,10.3H72.6V63.5Z" style="fill:#bd9c75"/><path d="M71.2,63.6V73.8H65.8C64.7,69.1,67.2,64.2,71.2,63.6Z" style="fill:#bd9c75"/><path d="M355,84.7h-5.5V75a14,14,0,0,1,5.4-.1C355.5,76.7,355.5,82.1,355,84.7Z" style="fill:#bd9c75"/><path d="M349.6,85.7h5.3a23.63,23.63,0,0,1,.1,9.2h-5.4V85.7Z" style="fill:#bd9c75"/><path d="M348.2,74.9v9.6a15.57,15.57,0,0,1-5.7.1V74.9h5.7Z" style="fill:#bd9c75"/><path d="M348.2,85.8V95h-5.6V85.8h5.6Z" style="fill:#bd9c75"/><path d="M355,73.8h-5.5V63.6C353.3,64,355.9,68.8,355,73.8Z" style="fill:#bd9c75"/><path d="M342.7,73.7c-0.8-5.2,1.4-9.3,5.6-10.2V73.7h-5.6Z" style="fill:#bd9c75"/><path d="M188.6,78.5v8.3H183V78.5h5.6Z" style="fill:#bd9c75"/><path d="M188.7,77.6h-5.8V69.3h5.7A76.62,76.62,0,0,1,188.7,77.6Z" style="fill:#bd9c75"/><path d="M195.5,77.7H190V69.4h5.5v8.3Z" style="fill:#bd9c75"/><path d="M190,78.5h5.5v8.3H190V78.5Z" style="fill:#bd9c75"/><path d="M188.7,95.2h-5.8V88h5.7A57.12,57.12,0,0,1,188.7,95.2Z" style="fill:#bd9c75"/><path d="M188.6,59.7V68a10.33,10.33,0,0,1-5.6.2C182.3,63.9,184.7,60.1,188.6,59.7Z" style="fill:#bd9c75"/><path d="M190,95.2V88h5.6v7.2H190Z" style="fill:#bd9c75"/><path d="M189.9,59.7c3.9,0.4,6.3,4.2,5.5,8.6h-5.5A82.23,82.23,0,0,1,189.9,59.7Z" style="fill:#bd9c75"/><path d="M363.4,86.9V79.1h4.5v7.8h-4.5Z" style="fill:#bd9c75"/><path d="M369.4,79h4.2v8h-4.3C368.8,84.6,368.8,80.6,369.4,79Z" style="fill:#bd9c75"/><path d="M369.1,87.9h4.5v7.3h-4.5V87.9Z" style="fill:#bd9c75"/><path d="M367.9,95.3h-4.5a59.26,59.26,0,0,1,0-7.3H368C367.9,90.4,367.9,92.8,367.9,95.3Z" style="fill:#bd9c75"/><path d="M373.6,78.2h-4.5V70C372.3,70.6,374.1,73.7,373.6,78.2Z" style="fill:#bd9c75"/><path d="M368,78.2h-4.5c-0.8-4,.9-7.3,4.4-8.3A57.13,57.13,0,0,1,368,78.2Z" style="fill:#bd9c75"/><path d="M328.6,87h-4.5V79h4.5A53.39,53.39,0,0,1,328.6,87Z" style="fill:#bd9c75"/><path d="M334.3,79.1v7.8h-4.5V79.1h4.5Z" style="fill:#bd9c75"/><path d="M334.3,88v7.3h-4.6a58.43,58.43,0,0,1-.1-7.3h4.7Z" style="fill:#bd9c75"/><path d="M328.6,88v7.3h-4.5V88h4.5Z" style="fill:#bd9c75"/><path d="M334.2,78.2h-4.4V70C333.1,70.7,334.8,73.8,334.2,78.2Z" style="fill:#bd9c75"/><path d="M328.6,69.8v8.3h-4.3A6.67,6.67,0,0,1,328.6,69.8Z" style="fill:#bd9c75"/><path d="M51.6,86.9H47.1V79h4.5v7.9Z" style="fill:#bd9c75"/><path d="M57.3,86.9H52.9V79h4.4v7.9Z" style="fill:#bd9c75"/><path d="M52.8,87.9h4.5v7.4H52.8V87.9Z" style="fill:#bd9c75"/><path d="M47.1,87.9h4.5v7.4H47.1V87.9Z" style="fill:#bd9c75"/><path d="M57.3,78.2H52.8V70C56,70.5,57.7,73.6,57.3,78.2Z" style="fill:#bd9c75"/><path d="M51.6,78.2H47.3c-0.7-4,.9-7.3,4.3-8.3v8.3Z" style="fill:#bd9c75"/><path d="M86.4,79h4.5a69.12,69.12,0,0,1,.1,7.9H86.3C86.4,84.3,86.4,81.8,86.4,79Z" style="fill:#bd9c75"/><path d="M96.7,79.1v7.8H92.1V79.1h4.6Z" style="fill:#bd9c75"/><path d="M96.7,95.3H92.3c-0.5-2.4-.2-4.8-0.2-7.3h4.6v7.3Z" style="fill:#bd9c75"/><path d="M91,88v7.3H86.5a35.53,35.53,0,0,1-.1-7.3H91Z" style="fill:#bd9c75"/><path d="M96.7,78.2H92.2V70.1C95.3,70.5,97,73.5,96.7,78.2Z" style="fill:#bd9c75"/><path d="M91,69.8v8.3H86.7A6.67,6.67,0,0,1,91,69.8Z" style="fill:#bd9c75"/><path d="M163.1,196.4v-4.1a1.33,1.33,0,0,1,.6-0.9c1.4-.9,4.6.8,4.5,2.5,0,1-.2,2-1.7,2.1C165.5,196.1,164.6,197.1,163.1,196.4Z" style="fill:#bd9c75"/><path d="M160.1,202.9V192.2h0.4v10.6C160.4,202.8,160.2,202.9,160.1,202.9Z" style="fill:#bd9c75"/><path d="M236.3,197.6v5.3H236v-5.3h0.3Z" style="fill:#bd9c75"/><path d="M243.3,202.5v-3.9h0.2v3.9h-0.2Z" style="fill:#bd9c75"/><path d="M227.1,200.5c0.4,0.9.5,1.8-.3,2.4a1.53,1.53,0,0,1-1.4.3,1.69,1.69,0,0,1-.4-1.4A1.93,1.93,0,0,1,227.1,200.5Z" style="fill:#bd9c75"/><path d="M207.9,200.4a11.9,11.9,0,0,1-.7,2.7,1.67,1.67,0,0,1-2.9.4c-1.2-1.3-1.4-4.7-.5-6.1a1.54,1.54,0,0,1,2.4-.5A3.79,3.79,0,0,1,207.9,200.4Z" style="fill:#bd9c75"/><path d="M208.2,201.4v-1.5h0.2a8.6,8.6,0,0,0,.1,1.6A0.37,0.37,0,0,1,208.2,201.4Z" style="fill:#bd9c75"/><path d="M261.2,198.5c0.6-1.6,1.5-2.2,2.7-1.9a1.42,1.42,0,0,1,.8.9,1.06,1.06,0,0,1-.8.9A11,11,0,0,1,261.2,198.5Z" style="fill:#bd9c75"/><path d="M258.5,202.2v-3.9A3.88,3.88,0,0,1,258.5,202.2Z" style="fill:#bd9c75"/><path d="M177.3,198v4.6h-0.2V198h0.2Z" style="fill:#bd9c75"/></g></svg>