<?xml version="1.0" encoding="utf-8"?>
<!-- Generator: Adobe Illustrator 19.2.1, SVG Export Plug-In . SVG Version: 6.00 Build 0)  -->
<svg preserveAspectRatio="xMidYMid slice" width="2000px" height="800px" version="1.1" id="Layer_1" xmlns="http://www.w3.org/2000/svg" xmlns:xlink="http://www.w3.org/1999/xlink" x="0px" y="0px"
	 viewBox="0 0 426.4 216.6" style="enable-background:new 0 0 426.4 216.6;" xml:space="preserve">
<style type="text/css">
	.st0{fill:#FFFFFF;}
	.st1{fill:#BD9C75;}
</style>
<g id="Layer_1_1_">
	<polygon class="st0" points="403.6,109.4 403.4,39.4 293.4,40.1 295.4,108.1 267.1,108.1 265.9,25.4 156.6,25.4 156.6,108.1 
		128.1,108.1 128.1,41.4 18.5,41.4 18.5,106.7 29.4,210.1 381.4,210.1 	"/>
	<path class="st1" d="M156.2,83.6c0-17.3,0-34.3,0-51.5c36.6,0,73,0,109.7,0c0,17.2,0,34.2,0,51.5c9.4,0.1,18.5,0.1,28,0
		c0-11.3,0-22.5,0-33.8c36.7,0,73,0,109.7,0c0,1.8,0,3.5,0,5.3c0,26.1,0,52.2,0,78.2c0,2.6,0.1,5.3,0,7.9c-0.2,3.8,1.6,6.5,4.4,8.6
		c2.7,2,5.6,3.6,8.6,5.3c2.3,1.3,4.7,2.4,7.1,3.5c1.8,0.9,2.8,2.2,2.7,4.3c-0.1,1.8,0,3.7,0,5.5s-0.2,2-2.1,2c-6.3,0-12.6,0-19,0.1
		c-0.8,0-1.6,0-2.6,0c0,15.4,0,30.5,0,45.6c-2,0.5-377.8,0.7-381.7,0.2c0-15.1,0-30.3,0-45.7c-1.1-0.1-1.9-0.1-2.8-0.2
		c-5,0-10.1,0-15.1,0c-2.8,0-3.1-0.3-3.1-3.2c0-2.1,0.1-4.2,0-6.2c-0.1-1.4,0.5-2.3,1.7-2.9c2.8-1.4,5.6-2.7,8.4-4.2
		c2.1-1.1,4.1-2.4,6.1-3.8c1.9-1.3,2.5-3.3,2.5-5.7c-0.1-29.5-0.1-59-0.1-88.5c0-2,0-4,0-5.9c1.9-0.6,105.2-0.8,109.8-0.3
		c0.4,11.1,0,22.2,0.3,33.7C137.7,83.7,146.7,83.7,156.2,83.6z M200.6,202.3c0.2,0.1,0.3,0.2,0.5,0.4c2.2,3.1,7,3,9-0.2
		c0.8-1.3,0.8-2.7,0-4c-1.5-2.4-5.2-3.2-7.6-1.6c-0.5,0.3-0.7,1.1-1.1,1.7c-0.3,0.1-0.8,0.1-0.9,0.4
		C199.8,199.9,200,201.1,200.6,202.3z M258.6,198.3c-0.8,1.3-0.6,2.6,0,3.9c0.9,2.3,2.7,2.9,4.9,2.7c1.4-0.2,3.1,0,3.6-2.4
		c-1.8,1.6-3.4,1.5-5,0.4c-1.1-0.8-1.3-1.9-1-3.3c1.5,0,2.8,0.1,4.2,0c1.4-0.1,1.9-1.1,1.1-2.3c-0.4-0.6-1-1.2-1.6-1.3
		c-1.2-0.2-2.6-0.2-3.8,0C259.9,196.3,258.7,196.8,258.6,198.3z M147.1,149.9c0-0.1,0-0.2,0-0.4c0.7-0.2,1.4-0.5,2.2-0.7
		c3.1-1,6.1-2.3,8.9-4.2c5-3.5,6.3-7.2,4.7-13.1c-1-3.7-3.2-6.3-6.9-7.3c-2.8-0.8-5.7-1.5-8.6-1.8c-6.5-0.8-13.1,0-19.6,0.2
		c-2.9,0.1-5.7,0.7-8.5,1.2c-1,0.2-2,0.9-2.9,1.5c-0.7,0.5-1.1,1.6-0.5,2.3c0.3,0.4,1.3,0.2,1.9,0.3c0.1,0,0.3-0.1,0.5-0.1
		c1.6-0.3,2.6,0.3,3,1.9c0.2,1,0.2,2.1,0.2,3.1c0,11.8,0,23.7,0,35.5c0,3.6-0.8,6.8-4.6,8.4c-0.4,0.2-0.8,1.1-0.7,1.6
		c0.1,0.5,0.7,1,1.2,1.2c0.6,0.2,1.3,0.1,1.9,0.1c5.7,0.1,11.3,0.2,17,0.3c1,0,2.1,0.1,3.1,0.2c0.8,0,1.5,0,1.6-1s-0.1-1.8-1.1-2.1
		c-0.4-0.1-0.8-0.3-1.2-0.3c-2.2-0.1-3.3-1.5-3.9-3.4c-0.3-0.9-0.6-1.9-0.6-2.8c-0.1-5-0.2-9.9-0.2-14.9c0-0.9,0.2-1.8,0.4-2.6
		c0.3-1.3,1.1-2.1,2.5-2.2c1.6-0.1,3.2-0.2,4.8-0.1c5,0.4,9.7,4.7,10.2,9.6c0.3,2.7,0,5.6-0.1,8.4c-0.1,1.7-0.4,3.4-0.3,5
		c0.3,3.5,3.1,5.9,6.6,5.9c2.2,0,4.5,0.1,6.7,0c1.2-0.1,2.5-0.4,3.7-0.8c0.6-0.3,1.2-1,1.4-1.7c0.3-1-0.6-1.4-1.4-1.6
		c-2.5-0.8-3.4-2.8-3.6-5.2c-0.2-2-0.2-4-0.5-6c-0.3-2.3-0.8-4.6-1.4-6.8c-0.7-2.4-2.4-4.2-4.8-5c-2.3-0.7-4.6-1.3-6.9-1.9
		C149.9,150.4,148.5,150.2,147.1,149.9z M300,154c-0.2,0.1-0.4,0.2-0.5,0.3c-0.4-0.5-0.7-1-1.1-1.5c-1.7-2-3.4-4.1-5.1-6.1
		c-6.4-7.6-12.8-15.2-19.1-22.8c-0.8-1-1.6-1.9-3.2-1.7c-3.7,0.5-7.5,0.4-11.2,0c-1.2-0.1-2.6,0-3.8,0.2c-0.4,0.1-1,0.6-1.1,1
		s0.3,1,0.6,1.5c0.1,0.2,0.5,0.3,0.8,0.4c3.1,1.3,4.3,3.5,4.3,6.9c-0.2,12.6-0.1,25.3-0.1,37.9c0,0.6,0,1.3,0,1.9
		c-0.2,2.1-1.1,3.2-3.1,3.7c-0.6,0.2-1.3,0.3-1.9,0.5c-1,0.3-1.7,1-1.6,2.1c0.2,1.1,1.2,1.2,2.1,1.1c0.2,0,0.3,0,0.5,0
		c4.8,0,9.6,0,14.4,0c0.4,0,0.9,0.1,1.2,0c0.6-0.3,1.5-0.6,1.6-1.1c0.2-0.5-0.2-1.5-0.7-1.8c-0.8-0.6-1.8-1.1-2.8-1.2
		c-3.2-0.3-4.3-0.8-4.4-4.8c0-0.3,0-0.6,0-1c0-10.6,0-21.3,0-31.9c0-0.6,0.1-1.2,0.1-2.2c0.8,0.9,1.3,1.3,1.7,1.9c4,5,8,10,12,15
		c6.8,8.5,13.6,17,20.4,25.5c0.8,1,1.6,1.9,3,1.4c1.4-0.4,2.2-1.6,2.2-3.3c0-0.6,0-1.1,0-1.7c0-14.1,0-28.2,0-42.2
		c0-1,0.1-2.1,0.2-3.1c0.2-1.7,1.3-2.7,2.9-3.1c0.5-0.1,0.9-0.2,1.4-0.3c1.5-0.4,2.2-1.2,2.1-2.2c-0.3-1.5-1.5-1.1-2.5-1.1
		c-4.8,0-9.6,0-14.4,0c-0.4,0-0.8-0.1-1.2,0.1c-0.5,0.2-1.3,0.5-1.5,0.9c-0.2,0.5,0.1,1.3,0.4,1.7c0.9,1.1,2.2,1.5,3.6,1.6
		c2.9,0.3,3.6,0.9,3.8,3.8c0,0.5,0,1,0,1.4c0,6.8,0,13.6,0,20.4C300.2,152.6,300.1,153.3,300,154z M322.1,150.5
		c0.2,2.2,0.3,4.5,0.7,6.7c2.2,10.6,8.1,17.9,18.9,20.7c2.6,0.7,5.4,0.9,8.1,1.1c4.8,0.2,9.3-1.1,13.3-3.9c10-6.9,14.9-19.1,12.6-31
		c-2-10-12.1-22.1-24.5-22.8c-9-0.5-16.7,2.2-22.3,9.6C324.5,136.7,322.2,143.2,322.1,150.5z M212.2,179.6c0,0.1,0,0.1,0,0.2
		c7.3,0,14.5,0,21.8,0c2.3,0,2.6-0.2,2.9-2.5c0.4-2.9,0.7-5.9,1.1-8.8c0.1-0.5,0.1-1,0.1-1.4c-0.1-1.3-1.2-1.8-2.2-1
		c-0.4,0.3-0.8,0.8-1.1,1.2c-1.4,1.6-2.8,3.3-4.3,4.8c-1.1,1.2-2.5,1.9-4.1,2.2c-3.9,0.9-7.8,1-11.7,0.9c-4.5,0-6.6-1.8-7.2-6.3
		c-0.1-0.7-0.1-1.4-0.1-2.2c0-3.5,0-7,0-10.6c0-0.9,0-1.8,0.2-2.6c0.4-2.2,0.9-2.8,3.1-2.9c2.6-0.1,5.1,0,7.7,0.1
		c2.4,0.1,3.8,1.5,4.4,3.7c0.1,0.5,0.2,0.9,0.3,1.4c0.3,1.2,1.2,1.4,2.2,1.4s1.3-0.8,1.4-1.6c0.1-0.5,0-1.1,0-1.7c0-3.3,0-6.5,0-9.8
		c0-0.6,0.1-1.2,0-1.7s-0.5-1.1-1-1.2c-0.4-0.1-1.2,0.2-1.4,0.5c-0.6,0.8-0.9,1.7-1.3,2.5c-0.9,2-2.3,3.1-4.7,3.1
		c-2.3-0.1-4.6,0.1-7,0.1c-2.9,0-4-1.1-4-4.1c0-4.2,0-8.3,0-12.5c0-0.6,0-1.1,0.1-1.7c0.4-2.4,1.1-3.2,3.5-3.5
		c4.5-0.7,9.1-0.6,13.6,0c1.7,0.2,3.2,0.9,4.3,2.3c1,1.2,1.9,2.4,2.8,3.5c0.5,0.6,1.3,1.3,2,0.8c0.5-0.3,0.8-1.2,0.8-1.8
		c0.1-2.1,0.1-4.2,0-6.2c-0.1-2.1-0.4-2.5-2.6-2.5c-4.1,0-8.2,0.2-12.2,0.2c-6.9,0-13.7,0-20.6-0.1c-2.7,0-5.4-0.1-8.2,0
		c-0.8,0-1.6,0.2-2.3,0.4c-1.2,0.5-1.3,1.3-0.3,2.1c0.7,0.5,1.5,1,2.3,1.2c1.9,0.5,3,1.8,3.5,3.6c0.4,1.3,0.6,2.7,0.6,4
		c0,11.4,0,22.7,0.1,34.1c0,2.7-0.8,4.9-2.6,6.7c-0.9,0.9-2.1,1.7-3.2,2.4c-0.8,0.5-1.2,1-1.1,1.9c0.2,1,0.9,1.3,1.7,1.3
		c0.6,0,1.1,0,1.7,0C198.3,179.6,205.3,179.6,212.2,179.6z M76.9,126.1c4.2-1.4,11.1-0.3,14.2,2.3c1.2,1,1.9,2.3,2.4,3.8
		c0.3,1.1,0.9,2.2,1.5,3.3c0.4,0.7,1.1,1.4,1.9,0.9c0.6-0.3,0.9-1.2,1.2-1.9c0.1-0.4-0.1-0.9-0.2-1.4c-0.4-2.4-0.8-4.7-1.1-7.1
		c-0.4-3.3-1-3.9-4.3-3.9c-8.3,0.1-16.6,0.3-24.9,0.4c-6.3,0-12.6-0.1-19-0.1c-2.2,0-2.5,0.2-3.2,2.3c-0.2,0.5-0.3,1.1-0.4,1.6
		c-0.3,1.7-0.6,3.5-0.8,5.2c-0.1,1-0.2,2.1-0.3,3.1c0,0.8,0.3,1.5,1.2,1.5c0.5,0,1.3-0.4,1.5-0.8c0.7-1.3,1.3-2.6,1.6-4
		c0.6-2.4,2-4,4.2-4.8c3.9-1.5,8-1.5,12-0.8c0.2,0,0.4,0.2,0.6,0.4c0,0.6,0.1,1.3,0.1,1.9c0,13.8,0,27.7,0,41.5c0,0.8,0,1.6-0.1,2.4
		c-0.2,2.2-1.2,3.7-3.5,4.3c-0.8,0.2-1.5,0.5-2.2,0.9c-0.4,0.3-0.9,1-0.7,1.3c0.2,0.5,0.8,1.1,1.3,1.1c1.2,0.1,2.4,0.1,3.6,0
		c4.6-0.4,9.1-0.5,13.7,0c1.6,0.2,3.2,0.2,4.8,0.1c0.5,0,1.3-0.6,1.4-1s-0.4-1.2-0.8-1.5c-0.6-0.4-1.4-0.7-2.2-0.9
		c-2-0.6-3.1-1.9-3.3-4c-0.1-1.4-0.2-2.9-0.2-4.3c0-13.1,0-26.2,0-39.4C76.9,127.7,76.9,126.8,76.9,126.1z M222,96.9
		c0-1,0.1-1.8,0.1-2.5c0-3.6,0-7.2,0-10.8c0-8.4,0-16.8,0-25.2c0-3.2-0.9-6.2-3-8.7c-3.7-4.4-9.9-4.4-13.6,0c-2.1,2.4-3,5.3-3,8.4
		c0,12.2,0,24.3,0,36.5c0,0.8,0.1,1.5,0.2,2.3C209.3,96.9,215.5,96.9,222,96.9z M242.9,96.6c0.1-0.6,0.2-1,0.2-1.5
		c0-9.4,0.1-18.9,0-28.3c0-1.8-0.6-3.6-1.4-5.2c-1.2-2.4-3.4-3.9-6.2-3.8c-2.8,0.1-4.8,1.6-6.1,4c-1,1.8-1.3,3.7-1.3,5.8
		c0,8.8,0,17.6,0,26.4c0,0.9,0.1,1.7,0.1,2.7C233.2,96.6,238,96.6,242.9,96.6z M79.3,96.6c0.1-0.5,0.2-0.8,0.2-1
		c0-7.9,0-15.8,0-23.8c0-2.3-0.6-4.6-1.7-6.7c-2.7-5.1-9-5-11.7,0c-1.2,2.2-1.7,4.5-1.7,6.9c0,7.6,0,15.2,0,22.8
		c0,0.5,0.1,1.1,0.2,1.7C69.5,96.6,74.3,96.6,79.3,96.6z M341.4,96.5c5,0,9.9,0,14.7,0c0.1-0.3,0.3-0.5,0.3-0.6
		c0-8.2,0.1-16.5,0-24.7c0-2.5-0.8-4.9-2.3-7c-1.2-1.6-2.6-2.7-4.8-2.8c-3.1-0.2-5,1.4-6.4,3.9c-1.2,2.1-1.6,4.5-1.6,6.9
		c0,7.5,0,15,0,22.6C341.3,95.3,341.4,95.9,341.4,96.5z M196.5,96.6c0.1-0.4,0.2-0.6,0.2-0.8c0-9.9,0-19.8,0-29.8
		c0-2-0.7-3.8-1.9-5.3c-2.9-3.9-8.1-4-11.1-0.2c-1.4,1.8-2,3.9-2,6.3c0,9.3,0,18.6,0,27.8c0,0.6,0.1,1.2,0.1,2
		C186.8,96.6,191.5,96.6,196.5,96.6z M374.7,96.4c0-6.9,0.1-13.6-0.1-20.2c0-1.8-0.7-3.6-1.5-5.2c-2.1-3.9-7-3.7-9.1-0.1
		c-1.1,1.9-1.5,4-1.5,6.2c0,5.9,0,11.8,0,17.7c0,0.5,0.1,1.1,0.2,1.6C366.7,96.4,370.6,96.4,374.7,96.4z M335.1,96.4
		c0.1-0.4,0.2-0.6,0.2-0.9c0-6.4,0.1-12.8-0.1-19.2c0-1.6-0.6-3.3-1.2-4.8c-0.9-2-2.4-3.4-4.8-3.4c-2.5,0-4.1,1.3-5,3.4
		c-0.7,1.7-1.1,3.7-1.2,5.5c-0.1,5.8-0.1,11.7,0,17.5c0,0.5,0.1,1.1,0.1,1.7C327.2,96.4,331.1,96.4,335.1,96.4z M58.1,96.4
		c0.1-0.3,0.2-0.5,0.2-0.6c0-6.5,0.1-13.1,0-19.6c0-1.6-0.6-3.3-1.3-4.8c-0.9-1.9-2.4-3.1-4.7-3.2c-2.4,0-3.8,1.3-4.9,3.2
		c-1,1.8-1.3,3.8-1.3,5.8c0,5.8,0,11.7,0,17.5c0,0.5,0.1,1.1,0.1,1.7C50.2,96.4,54.1,96.4,58.1,96.4z M85.5,96.5
		c4.2,0,8.2,0.1,12.2-0.1c0-7.1,0.1-13.9-0.1-20.6c0-1.7-0.8-3.6-1.7-5.1c-2-3.5-6.6-3.3-8.7-0.1c-1.3,1.9-1.7,4.1-1.7,6.4
		c0,3.5,0,7,0,10.5C85.5,90.4,85.5,93.3,85.5,96.5z M171.8,204.5c-0.4-0.9-1-1.8-1-2.7c0-2.4-1-3.9-3.5-4.4c-0.1,0-0.1-0.2-0.2-0.4
		c0.3-0.2,0.6-0.3,0.8-0.4c2.2-1.2,2.7-2,2.3-3.7c-0.3-1.5-1.2-2.3-3.4-2.4c-2.3-0.1-4.6,0-6.9,0.1c-0.5,0-0.9,0.4-1.1,0.4
		c0.4,0.9,0.9,1.7,0.9,2.4c0.1,1.9,0.1,3.8,0,5.8c0,1.8,0.3,3.7-1.3,5.5c2.2,0,4,0,6,0c-2.4-2-1.3-4.5-1.4-6.8c3.7-1,5.5,0.8,5,5.3
		c-0.2-0.6-0.3-0.8-0.5-1.1c-0.5,1.1-0.2,2,0.7,2.4C169.5,205.1,170.7,205.1,171.8,204.5z M234.1,204.6c2,0,3.8,0,5.8,0
		c-2-1.9-1.2-4-1.2-6c0-1,0.5-1.6,1.6-1.7c1-0.1,1.7,0.4,2,1.3c0.8,2,0.3,4.8-1.5,6.5c2.1,0,3.9,0,5.6,0c-0.3-1.1-0.7-2-0.8-2.9
		c-0.1-0.7,0-1.4,0-2.2c0-3-0.8-3.7-3.7-3.7c-0.7,0-1.4,0.2-2.1,0.3c-0.4,0-0.9,0.2-1.1,0.1c-1.4-1.5-2.6,0-3.9,0.1
		C236.2,198.7,235.9,202.8,234.1,204.6z M231.9,203.6c-2-0.1-1.6-1.2-1.7-2.2c0-0.7,0-1.4,0-2.2c0-2.9-0.5-3.3-3.3-3.3
		c-0.6,0-1.4-0.1-1.9,0.2c-0.8,0.4-1.7,1-2.1,1.8c-0.6,0.9-0.1,1.6,1,1.7c0.9-2.6,1.4-3.1,2.5-2.6c1.3,0.5,1.1,1.5,0.7,2.5
		c-3.9,1.7-4.5,2.6-3.5,5.5c1.2-0.4,2.4-0.7,3.6-1.1C228.6,205,230,205.1,231.9,203.6z M254.1,191.8c-1.7,1.7-3,3-4.6,4.6
		c0.9-0.1,1.6-0.2,2.5-0.2c0.1,1.4,0,2.7,0.2,3.9c0.3,2-0.4,3.3-2.3,4c-0.1,0-0.1,0.2-0.2,0.6c2,0,3.9,0,5.8,0
		c-0.4-0.8-1-1.5-1.1-2.3c-0.2-1.8-0.1-3.6-0.1-5.5c0.9,0.1,1.6,0.1,2.5,0.2c-0.2-1.7-1.7-0.7-2.4-1.6
		C254.3,194.4,254.2,193.2,254.1,191.8z M216.4,197.7c0.9,0.2,1.6,0.1,1.8,0.4c0.6,0.6,1.1,0.7,1.6,0.1c0.3-0.4,0.5-1.2,0.4-1.4
		c-0.3-0.4-1-0.8-1.5-0.8c-0.7,0-1.3,0.4-2.1,0.7c-0.4-0.8-0.9-1.4-2-0.7c-0.6,0.4-1.4,0.6-2.5,1.1c0.9,0.4,1.4,0.5,1.8,0.7
		c0,1.8,0,3.7,0,5.2c-0.8,0.5-1.5,0.9-2.2,1.3c0,0.1,0.1,0.2,0.1,0.4c1.9,0,3.7,0,5.8,0C215.5,202.6,216.5,200.3,216.4,197.7z
		 M194.9,196.1c0.2,2.3,0.3,4.6-0.1,6.8c0,0.1-0.5,0.1-0.7,0.3c-0.5,0.4-1.1,0.8-2,1.5c2.4,0,4.4,0,6.3,0c-0.5-0.7-1.2-1.2-1.2-1.8
		c-0.1-2-0.1-4-0.1-6.1c1.9,0.4,1.9,0.4,2.3-0.7c-0.7-0.2-1.5-0.3-2.2-0.5c-0.1-1.2-0.2-2.4-0.2-3.2c-1.3,1.4-2.7,2.8-3.8,4
		C193.3,196.3,193.9,196.2,194.9,196.1z M185.6,197.3c1.5-1.9,2.7-0.1,3.9,0.4c0.8-0.9,0.5-1.5-0.4-1.7c-1.1-0.2-2.2-0.2-3.3-0.1
		c-1.3,0.2-2.1,1.1-2.2,2.2c-0.1,1.4,0.8,1.9,2,2.3c1.1,0.3,2.2,0.9,3.2,1.3c-0.6,2.9-2.1,3.2-4.8,1.1c-0.8,0.6-0.9,1.3,0.1,1.5
		c1,0.3,2.2,0.5,3.3,0.3c2-0.2,3.2-1.4,3.4-2.8c0.2-1.4-0.6-2.2-2.8-3C187,198.6,186,198.6,185.6,197.3z M176.1,196.6
		c0.3,2.9,1.5,5.6-1.2,8.1c2.1,0,3.9,0,6.2,0c-1.9-1.1-1.5-2.7-1.6-4.1c0-1.6,0-3.1,0-5C178.1,195.9,177.1,196.3,176.1,196.6z
		 M271.9,198.7c2.6,0.7,9.4,0.7,11,0C281.3,198.1,274.4,198.1,271.9,198.7z M141.5,199c2.9,0.8,9.6,0.6,10.8-0.1
		C150.4,198.3,143.7,198.3,141.5,199z M177.7,191.6c-0.3,0.4-0.9,0.9-1,1.5c-0.2,0.8,0.7,1.5,1.5,1.4c0.9,0,1.3-0.6,1.3-1.4
		C179.6,192.3,178.9,191.6,177.7,191.6z"/>
	<path class="st1" d="M210.7,30.9c-17.1,0-34.2-0.1-51.3,0.1c-2.7,0-4.9-0.4-6.7-2.7c-1.1-1.4-2.6-2.6-3.9-3.9
		c-1.3-1.3-2.4-2.7-1.6-4.7c0.9-1.9,2.6-2.5,4.5-2.4c0.5,0,1,0,1.4,0.1c3.5,0.4,6.5-0.8,9.3-2.9c5.1-3.8,10.5-7.3,15.5-11.2
		c3.3-2.5,6.7-3.4,10.8-3.3c16.2,0.2,32.4,0.1,48.7,0c1,0,1.8,0.3,2.6,0.9c5.4,3.9,10.8,7.7,16.2,11.5c1.7,1.2,3.4,2.3,5.2,3.5
		c1.5,1,3.1,1.6,5,1.5c1.5,0,3,0,4.6,0c1.5,0,2.7,0.6,3.2,2c0.6,1.4,0.4,2.9-0.6,4c-2.3,2.4-4.8,4.7-7.3,7c-0.4,0.3-1,0.4-1.5,0.5
		c-0.6,0.1-1.3,0-1.9,0C245.6,30.9,228.1,30.9,210.7,30.9z"/>
	<path class="st1" d="M73.2,48.7c-17.7,0-35.3,0-53,0c-1.5,0-2.7-0.3-3.8-1.5c-1.7-1.9-3.7-3.5-5.6-5.2c-1.2-1.1-2-2.4-1.3-4
		c0.7-1.7,2.2-2.4,4-2.5c0.1,0,0.2,0,0.2,0c5.3,0.9,9.4-1.4,13.4-4.4c5.1-3.8,10.4-7.4,15.6-11.2c1.6-1.1,3.2-1.6,5.1-1.6
		c17.3,0.1,34.5,0.1,51.8,0c1.5,0,2.7,0.4,3.9,1.3c4.9,3.6,10,6.9,15,10.4c1.7,1.2,3.4,2.4,5,3.7c1.8,1.4,3.8,2.1,6,1.9
		c1.1-0.1,2.2-0.1,3.4-0.2c1.6-0.1,2.9,0.5,3.5,2c0.7,1.5,0.6,3-0.7,4.2c-1.4,1.4-3,2.6-4.5,4c-0.5,0.4-1.2,0.7-1.4,1.3
		c-1,2-2.7,1.9-4.5,1.9C108.1,48.7,90.6,48.7,73.2,48.7z"/>
	<path class="st1" d="M349,48.7c-17.7,0-35.3,0-53,0c-1.6,0-2.8-0.3-4-1.6c-1.2-1.4-2.8-2.4-4.2-3.5c-1.4-1.1-2.3-2.4-2.6-4.2
		c-0.4-2.3,0.7-3.8,3-3.9c0.8,0,1.6,0,2.4,0.1c2.3,0.3,4.5-0.1,6.4-1.3c3.9-2.5,7.7-5.1,11.6-7.7c3.9-2.6,7.8-5.3,11.7-7.9
		c0.7-0.4,1.6-0.6,2.5-0.6c17.6,0,35.2,0,52.8,0c1.3,0,2.2,0.4,3.2,1.2c7.3,5.3,14.7,10.4,22.1,15.6c1.7,1.2,3.5,1.4,5.5,0.9
		c2.7-0.7,4.2-0.2,5.1,1.3c0.9,1.6,0.7,3.7-0.9,5.5c-1.8,2-3.8,3.8-5.9,5.6c-0.6,0.5-1.7,0.4-2.5,0.4c-10.4,0-20.8,0-31.2,0
		C363.8,48.7,356.4,48.7,349,48.7z"/>
	<path class="st1" d="M200.6,202.3c0.1-0.9,0.2-1.9,0.3-2.8c0,1.1,0.1,2.1,0.1,3.2C201,202.5,200.8,202.4,200.6,202.3z"/>
	<path class="st1" d="M133.9,137.7c0-2.2-0.1-4.3,0-6.5c0.1-3.5,1.6-5.1,5.1-5.5c5.1-0.6,9.3,1.9,10.9,6.6c1.8,5,0.1,10.1-4.2,12.8
		c-2.5,1.6-5.3,2.3-8.1,2.7c-2.1,0.3-3.6-1.1-3.7-3.4C133.8,142.2,133.9,139.9,133.9,137.7L133.9,137.7z"/>
	<path class="st1" d="M121.2,125.7c2.3,0.3,3.5,1.5,3.9,3.6c0.1,0.9,0.1,1.8,0.1,2.6c0,12.5,0,25.1,0,37.6c0,3-1.3,5.2-3.4,7.1
		c-0.1,0.1-0.3,0.2-0.4,0.2s-0.3,0-0.7,0c0.2-0.5,0.3-0.9,0.6-1.2c1.5-2,2.1-4.2,2.1-6.7c-0.1-11.9,0-23.8,0-35.7
		C123.4,130.5,123.7,127.8,121.2,125.7z"/>
	<path class="st1" d="M145.3,125.3c4.9-0.3,9.2,5.2,9.2,11.2c0,5.7-4.6,11.1-9.9,11.2c0.5-0.4,0.8-0.7,1.2-0.9
		c6.9-3.5,8.9-12.3,4-18.3c-0.9-1.1-2.2-1.8-3.3-2.6C146.2,125.6,145.7,125.5,145.3,125.3z"/>
	<path class="st1" d="M149.7,152.8c1.6,0,2.4,1.1,3.1,2.2c1.7,2.4,2.3,5.2,2.5,8.1c0.1,2.4,0.1,4.8,0,7.2c-0.1,2.6,0,5.1,2.3,7.1
		c-2.4-0.5-3.4-1.3-3.6-3.3c-0.2-1.6-0.2-3.2-0.3-4.8c-0.1-2.5-0.1-4.9-0.3-7.4C153.1,158.6,152.4,155.3,149.7,152.8z"/>
	<path class="st1" d="M260.5,125.5c2,0.4,3,1.7,3.3,3.5c0.1,0.7,0.1,1.4,0.1,2.1c0,13,0,26.1,0,39.1c0,2.5-0.6,4.6-2.6,6.1
		c-0.2,0.1-0.4,0.3-0.6,0.4c-0.1,0.1-0.3,0-0.7,0c0.3-0.5,0.4-0.8,0.7-1.2c1.1-1.7,1.3-3.5,1.3-5.5c0-9.8,0-19.5,0.1-29.3
		c0-2.6,0-5.1,0.1-7.7C262.4,130.5,262.2,127.9,260.5,125.5z"/>
	<path class="st1" d="M301.3,175.5c-0.7-0.7-1.4-1.4-2.1-2.1c-10-12.4-19.9-24.8-29.9-37.2c-0.9-1.1-1.8-2.3-2.7-3.4
		c-0.7-0.8-0.9-1.8-0.6-3.3c12,15.1,23.7,29.8,35.4,44.6c0.2,0.3,0.3,0.7,0.4,1C301.6,175.2,301.5,175.3,301.3,175.5z"/>
	<path class="st1" d="M335.1,150.4c-0.2-8.5,1.8-15.6,6.3-21.8c4.4-6.1,11.5-6,16.2-0.1c2.1,2.7,3.4,5.8,4.3,9
		c3,9.9,3.2,19.7-0.7,29.4c-0.7,1.8-1.7,3.7-2.8,5.3c-2.7,3.8-6.4,4.8-10.8,3.3c-2.6-0.9-4.6-2.6-6.2-4.7c-2.6-3.6-4.1-7.8-5-12.1
		C335.7,155.6,335.4,152.6,335.1,150.4z"/>
	<path class="st1" d="M336.7,126.4c-7.6,6.5-11.1,14.4-11,23.9c0.1,9.4,2.9,17.6,10.3,23.9c-0.4-0.2-0.9-0.4-1.3-0.7
		c-5.7-4.3-8.9-10.2-10.2-17.1c-2.2-11.5,1-21.3,9.9-29.1c0.4-0.3,0.7-0.6,1.1-0.9C335.6,126.4,335.8,126.4,336.7,126.4z"/>
	<path class="st1" d="M358.6,126.7c0.6,0.6,1.2,1.1,1.8,1.7c2,2.3,3.3,4.9,4.3,7.7c3.8,10.2,4.1,20.4-0.1,30.6
		c-1.1,2.6-2.4,5.1-4.4,7.1c-0.4,0.4-0.9,0.7-1.4,1.1c-0.2-0.4-0.3-0.6-0.3-0.7c4-4.1,5.5-9.3,6.6-14.6c1.6-8,0.7-15.9-1.8-23.6
		c-1-3-2.4-5.7-4.6-8c-0.2-0.2-0.3-0.5-0.5-0.7C358.3,127,358.4,126.8,358.6,126.7z"/>
	<path class="st1" d="M195.2,125.5c1.7,0.4,2.6,1.5,2.8,3c0.2,1.3,0.4,2.7,0.4,4c0,11.9,0,23.8,0,35.7c0,4.1-1.6,6.2-5.9,7.4
		c0.5-0.5,1.1-0.9,1.6-1.4c1.7-1.4,2.5-3.1,2.5-5.4c-0.1-11.5,0-23,0-34.5C196.6,131.3,196.9,128.3,195.2,125.5z"/>
	<path class="st1" d="M234.8,170.7c0.4,3.1,0.2,3.5-2.3,4.4c-1.1,0.4-2.4,0.6-3.6,0.7c0.6-1.3,2-1.7,2.9-2.5
		S233.7,171.6,234.8,170.7z"/>
	<path class="st1" d="M232.3,129.6c-0.7-1-1.4-2.1-2.3-3c-0.8-0.8-1.8-1.4-2.6-2.3c2,0.5,3.8,1.4,5.1,3.1
		C233.3,128.2,233.3,128.9,232.3,129.6z"/>
	<path class="st1" d="M221.8,149.3c0.8-0.8,1.5-1.3,2.3-2.1c0.6,1.6,0.2,3,0.4,4.5C223,151.4,222.8,150.2,221.8,149.3z"/>
	<path class="st1" d="M68.6,126.1c0,0.9,0,1.7,0,2.4c0,13.2,0,26.4,0,39.5c0,1.8-0.3,3.7-0.7,5.4c-0.4,1.4-1.2,2.7-3,3.4
		c0.1-0.5,0-0.9,0.2-1.1c1.5-2.4,1.8-5.1,1.8-7.8c0-13,0-26,0-39c0-0.7,0-1.4,0.1-2.2C66.9,125.9,67.5,125.9,68.6,126.1z"/>
	<path class="st1" d="M94.9,129.6c-1.7-1.5-3-2.6-4.5-4c1.4-0.3,2.5-0.2,3.8,0.1C94.4,126.9,94.6,128,94.9,129.6z"/>
	<path class="st1" d="M50.8,125.5c-1.6,1.1-2.9,2.1-4.2,3.1C46.3,125.3,47.2,124.6,50.8,125.5z"/>
	<path class="st1" d="M220.5,72.3c-0.9,0-1.7,0.1-2.4,0.1c-1.6,0-3.1,0-4.9,0c0-3.7,0-7.2,0-10.9c2.3-0.4,4.7-0.2,7.3-0.1
		C220.5,65.1,220.5,68.6,220.5,72.3z"/>
	<path class="st1" d="M213.1,73.5c2.6,0,5,0,7.5,0c0,3.6,0,7.1,0,10.9c-2.3,0.2-4.7,0.1-7.1,0.1c-0.1-0.4-0.4-0.6-0.4-0.9
		C213.1,80.3,213.1,77,213.1,73.5z"/>
	<path class="st1" d="M211.4,72.3c-2.5,0-4.8,0-7.3,0c0-3.6,0-7.1,0-10.7c2.4-0.6,4.7-0.1,7-0.3C211.7,63,211.9,68.7,211.4,72.3z"/>
	<path class="st1" d="M211.5,73.5c0,3.7,0,7.2,0,10.8c-2.5,0-4.8,0-7.4,0c0-3.6,0-7.2,0-10.8C206.6,73.5,209,73.5,211.5,73.5z"/>
	<path class="st1" d="M213.2,49c4.8,0.3,8.1,5.4,7.2,11.2c-2.3,0-4.7,0-7.2,0C213.2,56.5,213.2,52.8,213.2,49z"/>
	<path class="st1" d="M220.5,95c-2.5,0-4.8,0-7.3,0c0-3.2,0-6.2,0-9.4c2.4,0,4.8,0,7.3,0C220.5,88.7,220.5,91.8,220.5,95z"/>
	<path class="st1" d="M211.5,95c-2.6,0-4.9,0-7.4,0c0-3.1,0-6.1,0-9.4c2.4-0.3,4.8-0.2,7.4,0C211.5,88.7,211.5,91.7,211.5,95z"/>
	<path class="st1" d="M204.2,60.2c-0.8-5.9,2.5-10.9,7.3-11.2c0,3.7,0,7.4,0,11.2C209,60.2,206.7,60.2,204.2,60.2z"/>
	<path class="st1" d="M241.9,77.7c-2,0-3.7,0-5.6,0c0-2.8,0-5.5,0-8.4c1.9,0,3.7,0,5.6,0C241.9,72.1,241.9,74.7,241.9,77.7z"/>
	<path class="st1" d="M236.2,86.9c0-2.9,0-5.5,0-8.3c1.9,0,3.7,0,5.8,0c0.2,2.7,0.1,5.4,0,8.3C240,86.9,238.2,86.9,236.2,86.9z"/>
	<path class="st1" d="M229.3,87c0-2.9,0-5.6,0-8.4c1.9,0,3.7,0,5.6,0c0,2.7,0,5.4,0,8.2C233.2,87.3,231.4,87,229.3,87z"/>
	<path class="st1" d="M229.3,69.3c1.9,0,3.7,0,5.6,0c0,2.8,0,5.5,0,8.3c-1.8,0-3.6,0-5.6,0C229.3,74.8,229.3,72.1,229.3,69.3z"/>
	<path class="st1" d="M241.9,88c0,2.5,0,4.7,0,7.2c-1.9,0-3.7,0-5.6,0c-0.4-2.4-0.2-4.7-0.1-7.2C238.1,88,239.9,88,241.9,88z"/>
	<path class="st1" d="M241.7,68.3c-1.8,0-3.6,0-5.5,0c0-2.9,0-5.7,0-8.4C239.7,59.5,242.6,63.9,241.7,68.3z"/>
	<path class="st1" d="M229.3,95.2c0-2.5,0-4.8,0-7.2c1.9,0,3.7,0,5.6,0c0,2.4,0,4.7,0,7.2C233,95.2,231.3,95.2,229.3,95.2z"/>
	<path class="st1" d="M234.9,68.3c-1.9,0-3.7,0-5.5,0c-0.8-4.6,1.6-8.3,5.5-8.6C234.9,62.5,234.9,65.3,234.9,68.3z"/>
	<path class="st1" d="M78.2,84.7c-2,0-3.8,0-5.7,0c0-3.3,0-6.5,0-9.8c1.9,0,3.7,0,5.7,0C78.2,78.1,78.2,81.3,78.2,84.7z"/>
	<path class="st1" d="M72.6,85.7c1.9,0,3.6,0,5.7,0c0.1,3,0.1,6,0,9.2c-1.9,0-3.7,0-5.7,0C72.6,91.9,72.6,89,72.6,85.7z"/>
	<path class="st1" d="M71.2,74.9c0,3.3,0,6.5,0,9.8c-1.9,0-3.7,0-5.6,0c0-3.3,0-6.4,0-9.8C67.4,74.9,69.2,74.9,71.2,74.9z"/>
	<path class="st1" d="M65.6,94.9c0-3,0-6,0-9.1c1.8,0,3.6,0,5.6,0c0.2,3,0.1,6,0,9.1C69.4,94.9,67.7,94.9,65.6,94.9z"/>
	<path class="st1" d="M72.6,63.5c4,1,6.4,5.4,5.5,10.3c-1.7,0-3.5,0-5.5,0C72.6,70.4,72.6,67,72.6,63.5z"/>
	<path class="st1" d="M71.2,63.6c0,3.3,0,6.6,0,10.2c-1.8,0-3.6,0-5.4,0C64.7,69.1,67.2,64.2,71.2,63.6z"/>
	<path class="st1" d="M355,84.7c-1.8,0-3.5,0-5.5,0c0-3.3,0-6.4,0-9.7c1.8-0.5,3.6-0.3,5.4-0.1C355.5,76.7,355.5,82.1,355,84.7z"/>
	<path class="st1" d="M349.6,85.7c1.9,0,3.6,0,5.3,0c0.6,1.8,0.7,7,0.1,9.2c-1.7,0-3.4,0-5.4,0C349.6,92,349.6,89,349.6,85.7z"/>
	<path class="st1" d="M348.2,74.9c0,3.3,0,6.4,0,9.6c-1.9,0.5-3.7,0.3-5.7,0.1c0-3.3,0-6.4,0-9.7C344.4,74.9,346.2,74.9,348.2,74.9z
		"/>
	<path class="st1" d="M348.2,85.8c0,3.1,0,6.1,0,9.2c-1.9,0-3.7,0-5.6,0c0-3.1,0-6,0-9.2C344.5,85.8,346.2,85.8,348.2,85.8z"/>
	<path class="st1" d="M355,73.8c-1.9,0-3.6,0-5.5,0c0-3.5,0-6.8,0-10.2C353.3,64,355.9,68.8,355,73.8z"/>
	<path class="st1" d="M342.7,73.7c-0.8-5.2,1.4-9.3,5.6-10.2c0,1.7,0,3.3,0,5s0,3.3,0,5.2C346.4,73.7,344.6,73.7,342.7,73.7z"/>
	<path class="st1" d="M188.6,78.5c0,2.8,0,5.5,0,8.3c-1.9,0-3.6,0-5.6,0c0-2.7,0-5.5,0-8.3C184.8,78.5,186.6,78.5,188.6,78.5z"/>
	<path class="st1" d="M188.7,77.6c-2,0-3.8,0-5.8,0c0-2.8,0-5.5,0-8.3c1.8,0,3.6,0,5.7,0C188.9,72.1,188.7,74.8,188.7,77.6z"/>
	<path class="st1" d="M195.5,77.7c-1.9,0-3.6,0-5.5,0c0-2.8,0-5.5,0-8.3c1.8,0,3.6,0,5.5,0C195.5,72,195.5,74.7,195.5,77.7z"/>
	<path class="st1" d="M190,78.5c1.9,0,3.7,0,5.5,0c0,2.8,0,5.5,0,8.3c-1.8,0-3.6,0-5.5,0C190,84.2,190,81.5,190,78.5z"/>
	<path class="st1" d="M188.7,95.2c-2.1,0-3.9,0-5.8,0c0-2.5,0-4.7,0-7.2c1.9,0,3.6,0,5.7,0C188.9,90.3,188.7,92.7,188.7,95.2z"/>
	<path class="st1" d="M188.6,59.7c0,2.8,0,5.5,0,8.3c-1.7,0.6-3.2,0.6-5.6,0.2C182.3,63.9,184.7,60.1,188.6,59.7z"/>
	<path class="st1" d="M190,95.2c0-2.4,0-4.8,0-7.2c1.9,0,3.6,0,5.6,0c0,2.4,0,4.7,0,7.2C193.7,95.2,191.9,95.2,190,95.2z"/>
	<path class="st1" d="M189.9,59.7c3.9,0.4,6.3,4.2,5.5,8.6c-1.7,0-3.4,0-5.5,0C189.7,65.5,189.8,62.6,189.9,59.7z"/>
	<path class="st1" d="M363.4,86.9c0-2.7,0-5.2,0-7.8c1.5,0,2.9,0,4.5,0c0,2.6,0,5.1,0,7.8C366.4,86.9,365,86.9,363.4,86.9z"/>
	<path class="st1" d="M369.4,79c1.3,0,2.7,0,4.2,0c0,2.7,0,5.3,0,8c-1.5,0-2.9,0-4.3,0C368.8,84.6,368.8,80.6,369.4,79z"/>
	<path class="st1" d="M369.1,87.9c1.5,0,2.9,0,4.5,0c0,2.4,0,4.8,0,7.3c-1.5,0-2.9,0-4.5,0C369.1,92.8,369.1,90.4,369.1,87.9z"/>
	<path class="st1" d="M367.9,95.3c-1.6,0-2.9,0-4.5,0c-0.2-2.4-0.1-4.8,0-7.3c1.5,0,3,0,4.6,0C367.9,90.4,367.9,92.8,367.9,95.3z"/>
	<path class="st1" d="M373.6,78.2c-1.6,0-3,0-4.5,0c0-2.8,0-5.5,0-8.2C372.3,70.6,374.1,73.7,373.6,78.2z"/>
	<path class="st1" d="M368,78.2c-1.7,0-3.1,0-4.5,0c-0.8-4,0.9-7.3,4.4-8.3C368.2,72.6,368.1,75.3,368,78.2z"/>
	<path class="st1" d="M328.6,87c-1.6,0-3,0-4.5,0c0-2.7,0-5.2,0-8c1.5,0,2.8,0,4.5,0C328.8,81.6,328.8,84.2,328.6,87z"/>
	<path class="st1" d="M334.3,79.1c0,2.6,0,5.1,0,7.8c-1.5,0-2.9,0-4.5,0c0-2.6,0-5.1,0-7.8C331.2,79.1,332.7,79.1,334.3,79.1z"/>
	<path class="st1" d="M334.3,88c0,2.5,0,4.8,0,7.3c-1.5,0-2.9,0-4.6,0c-0.3-2.3-0.1-4.7-0.1-7.3C331.2,88,332.6,88,334.3,88z"/>
	<path class="st1" d="M328.6,88c0,2.5,0,4.8,0,7.3c-1.5,0-2.9,0-4.5,0c0-2.5,0-4.8,0-7.3C325.5,88,326.9,88,328.6,88z"/>
	<path class="st1" d="M334.2,78.2c-1.5,0-2.8,0-4.4,0c0-2.8,0-5.5,0-8.2C333.1,70.7,334.8,73.8,334.2,78.2z"/>
	<path class="st1" d="M328.6,69.8c0,2.9,0,5.5,0,8.3c-1.5,0-2.9,0-4.3,0C323.3,74.6,325,71.1,328.6,69.8z"/>
	<path class="st1" d="M51.6,86.9c-1.5,0-2.9,0-4.5,0c0-2.6,0-5.1,0-7.9c1.4,0,2.9,0,4.5,0C51.6,81.7,51.6,84.2,51.6,86.9z"/>
	<path class="st1" d="M57.3,86.9c-1.5,0-2.9,0-4.4,0c0-2.6,0-5.2,0-7.9c1.5,0,2.9,0,4.4,0C57.3,81.6,57.3,84.2,57.3,86.9z"/>
	<path class="st1" d="M52.8,87.9c1.6,0,3,0,4.5,0c0,2.4,0,4.8,0,7.4c-1.4,0-2.9,0-4.5,0C52.8,92.8,52.8,90.4,52.8,87.9z"/>
	<path class="st1" d="M47.1,87.9c1.6,0,2.9,0,4.5,0c0,2.5,0,4.9,0,7.4c-1.5,0-2.9,0-4.5,0C47.1,92.8,47.1,90.5,47.1,87.9z"/>
	<path class="st1" d="M57.3,78.2c-1.6,0-3,0-4.5,0c0-2.8,0-5.5,0-8.2C56,70.5,57.7,73.6,57.3,78.2z"/>
	<path class="st1" d="M51.6,78.2c-1.6,0-3,0-4.3,0c-0.7-4,0.9-7.3,4.3-8.3C51.6,72.6,51.6,75.3,51.6,78.2z"/>
	<path class="st1" d="M86.4,79c1.6,0,2.9,0,4.5,0c0.3,2.6,0.1,5.2,0.1,7.9c-1.6,0-3.1,0-4.7,0C86.4,84.3,86.4,81.8,86.4,79z"/>
	<path class="st1" d="M96.7,79.1c0,2.7,0,5.1,0,7.8c-1.5,0-3,0-4.6,0c0-2.6,0-5.1,0-7.8C93.6,79.1,95.1,79.1,96.7,79.1z"/>
	<path class="st1" d="M96.7,95.3c-1.6,0-2.9,0-4.4,0c-0.5-2.4-0.2-4.8-0.2-7.3c1.6,0,3,0,4.6,0C96.7,90.4,96.7,92.7,96.7,95.3z"/>
	<path class="st1" d="M91,88c0,2.4,0,4.8,0,7.3c-1.5,0-2.9,0-4.5,0c-0.4-2.4-0.2-4.8-0.1-7.3C87.9,88,89.4,88,91,88z"/>
	<path class="st1" d="M96.7,78.2c-1.6,0-3,0-4.5,0c0-2.8,0-5.5,0-8.1C95.3,70.5,97,73.5,96.7,78.2z"/>
	<path class="st1" d="M91,69.8c0,2.9,0,5.5,0,8.3c-1.5,0-2.9,0-4.3,0C85.7,74.6,87.4,71.1,91,69.8z"/>
	<path class="st1" d="M163.1,196.4c0-1.3,0-2.7,0-4.1c0-0.3,0.3-0.7,0.6-0.9c1.4-0.9,4.6,0.8,4.5,2.5c0,1-0.2,2-1.7,2.1
		C165.5,196.1,164.6,197.1,163.1,196.4z"/>
	<path class="st1" d="M160.1,202.9c0-2.7,0-5.4,0-8.1c0-0.9,0-1.7,0-2.6c0.1,0,0.3,0,0.4,0c0,3.5,0,7.1,0,10.6
		C160.4,202.8,160.2,202.9,160.1,202.9z"/>
	<path class="st1" d="M236.3,197.6c0,1.8,0,3.5,0,5.3c-0.1,0-0.2,0-0.3,0c0-1.8,0-3.5,0-5.3C236.2,197.6,236.3,197.6,236.3,197.6z"
		/>
	<path class="st1" d="M243.3,202.5c0-1.3,0-2.6,0-3.9c0.1,0,0.1,0,0.2,0c0,1.3,0,2.6,0,3.9C243.4,202.5,243.3,202.5,243.3,202.5z"/>
	<path class="st1" d="M227.1,200.5c0.4,0.9,0.5,1.8-0.3,2.4c-0.4,0.3-1.1,0.5-1.4,0.3s-0.5-1-0.4-1.4
		C225.3,201,226,200.4,227.1,200.5z"/>
	<path class="st1" d="M207.9,200.4c-0.2,0.9-0.3,1.9-0.7,2.7c-0.6,1.3-2,1.4-2.9,0.4c-1.2-1.3-1.4-4.7-0.5-6.1
		c0.7-1,1.4-1.1,2.4-0.5C207.4,197.8,208,198.9,207.9,200.4z"/>
	<path class="st1" d="M208.2,201.4c0-0.5,0-1,0-1.5c0.1,0,0.2,0,0.2,0c0,0.5,0,1.1,0.1,1.6C208.4,201.5,208.3,201.5,208.2,201.4z"/>
	<path class="st1" d="M261.2,198.5c0.6-1.6,1.5-2.2,2.7-1.9c0.3,0.1,0.8,0.6,0.8,0.9s-0.4,0.9-0.8,0.9
		C263.2,198.6,262.4,198.5,261.2,198.5z"/>
	<path class="st1" d="M258.5,202.2c0-1.3,0-2.6,0-3.9C259.2,199.6,259.2,200.9,258.5,202.2z"/>
	<path class="st1" d="M177.3,198c0,1.5,0,3,0,4.6c-0.1,0-0.2,0-0.2,0c0-1.5,0-3,0-4.6C177.1,198,177.2,198,177.3,198z"/>
</g>
<g id="Layer_2">
</g>
</svg>
