<?xml version="1.0" encoding="utf-8"?>
<!-- Generator: Adobe Illustrator 19.2.1, SVG Export Plug-In . SVG Version: 6.00 Build 0)  -->
<svg version="1.1" xmlns="http://www.w3.org/2000/svg" xmlns:xlink="http://www.w3.org/1999/xlink" x="0px" y="0px"
	 viewBox="0 0 612 792" style="enable-background:new 0 0 612 792;" xml:space="preserve">
<style type="text/css">
	.st0{fill:#FFFFFF;}
	.st1{fill:#BD9C75;}
</style>
<g id="Layer_1">
	<path class="st1" d="M316.6,383.9c7.3,0,14.5,0,21.8,0c2.3,0,2.6-0.2,2.9-2.5c0.4-2.9,0.7-5.9,1.1-8.8c0.1-0.5,0.1-1,0.1-1.4
		c-0.1-1.3-1.2-1.8-2.2-1c-0.4,0.3-0.8,0.8-1.1,1.2c-1.4,1.6-2.8,3.3-4.3,4.8c-1.1,1.2-2.5,1.9-4.1,2.2c-3.9,0.9-7.8,1-11.7,0.9
		c-4.5,0-6.6-1.8-7.2-6.3c-0.1-0.7-0.1-1.4-0.1-2.2c0-3.5,0-7,0-10.6c0-0.9,0-1.8,0.2-2.6c0.4-2.2,0.9-2.8,3.1-2.9
		c2.6-0.1,5.1,0,7.7,0.1c2.4,0.1,3.8,1.5,4.4,3.7c0.1,0.5,0.2,0.9,0.3,1.4c0.3,1.2,1.2,1.4,2.2,1.4c1,0,1.3-0.8,1.4-1.6
		c0.1-0.5,0-1.1,0-1.7c0-3.3,0-6.5,0-9.8c0-0.6,0.1-1.2,0-1.7c-0.1-0.5-0.5-1.1-1-1.2c-0.4-0.1-1.2,0.2-1.4,0.5
		c-0.6,0.8-0.9,1.7-1.3,2.5c-0.9,2-2.3,3.1-4.7,3.1c-2.3-0.1-4.6,0.1-7,0.1c-2.9,0-4-1.1-4-4.1c0-4.2,0-8.3,0-12.5
		c0-0.6,0-1.1,0.1-1.7c0.4-2.4,1.1-3.2,3.5-3.5c4.5-0.7,9.1-0.6,13.6,0c1.7,0.2,3.2,0.9,4.3,2.3c1,1.2,1.9,2.4,2.8,3.5
		c0.5,0.6,1.3,1.3,2,0.8c0.5-0.3,0.8-1.2,0.8-1.8c0.1-2.1,0.1-4.2,0-6.2c-0.1-2.1-0.4-2.5-2.6-2.5c-4.1,0-8.2,0.2-12.2,0.2
		c-6.9,0-13.7,0-20.6-0.1c-2.7,0-5.4-0.1-8.2,0c-0.8,0-1.6,0.2-2.3,0.4c-1.2,0.5-1.3,1.3-0.3,2.1c0.7,0.5,1.5,1,2.3,1.2
		c1.9,0.5,3,1.8,3.5,3.6c0.4,1.3,0.6,2.7,0.6,4c0,11.4,0,22.7,0.1,34.1c0,2.7-0.8,4.9-2.6,6.7c-0.9,0.9-2.1,1.7-3.2,2.4
		c-0.8,0.5-1.2,1-1.1,1.9c0.2,1,0.9,1.3,1.7,1.3c0.6,0,1.1,0,1.7,0L316.6,383.9z M296.9,379.6c0.5-0.5,1.1-0.9,1.6-1.4
		c1.7-1.4,2.5-3.1,2.5-5.4c-0.1-11.5,0-23,0-34.5c0-3,0.4-6-1.4-8.9c1.7,0.4,2.6,1.5,2.8,3c0.2,1.3,0.4,2.7,0.4,4
		c0,11.9,0,23.8,0,35.7C302.8,376.3,301.2,378.4,296.9,379.6z M336.2,377.3c0.9-0.8,1.9-1.6,3.1-2.6c0.4,3.1,0.2,3.5-2.3,4.4
		c-1.1,0.4-2.4,0.6-3.6,0.7C333.9,378.6,335.2,378.2,336.2,377.3z M328.4,351.3c0.6,1.6,0.2,3,0.4,4.5c-1.4-0.3-1.7-1.5-2.7-2.4
		C327,352.6,327.6,352.1,328.4,351.3z M337,331.4c0.7,0.8,0.6,1.6-0.3,2.2c-0.8-1-1.4-2.1-2.3-3c-0.8-0.8-1.8-1.4-2.6-2.3
		C333.9,328.8,335.7,329.7,337,331.4z"/>
	<path class="st1" d="M223.6,327.9c-1,0.2-2,0.9-2.9,1.5c-0.7,0.5-1.1,1.6-0.5,2.3c0.3,0.4,1.3,0.2,1.9,0.3c0.1,0,0.3-0.1,0.5-0.1
		c1.6-0.3,2.6,0.3,3,1.9c0.2,1,0.2,2.1,0.2,3.1c0,11.8,0,23.7,0,35.5c0,3.6-0.8,6.8-4.6,8.4c-0.4,0.2-0.8,1.1-0.7,1.6
		c0.1,0.5,0.7,1,1.2,1.2c0.6,0.2,1.3,0.1,1.9,0.1c5.7,0.1,11.3,0.2,17,0.3c1,0,2.1,0.1,3.1,0.2c0.8,0,1.5,0,1.6-1
		c0.1-1-0.1-1.8-1.1-2.1c-0.4-0.1-0.8-0.3-1.2-0.3c-2.2-0.1-3.3-1.5-3.9-3.4c-0.3-0.9-0.6-1.9-0.6-2.8c-0.1-5-0.2-9.9-0.2-14.9
		c0-0.9,0.2-1.8,0.4-2.6c0.3-1.3,1.1-2.1,2.5-2.2c1.6-0.1,3.2-0.2,4.8-0.1c5,0.4,9.7,4.7,10.2,9.6c0.3,2.7,0,5.6-0.1,8.4
		c-0.1,1.7-0.4,3.4-0.3,5c0.3,3.5,3.1,5.9,6.6,5.9c2.2,0,4.5,0.1,6.7,0c1.2-0.1,2.5-0.4,3.7-0.8c0.6-0.3,1.2-1,1.4-1.7
		c0.3-1-0.6-1.4-1.4-1.6c-2.5-0.8-3.4-2.8-3.6-5.2c-0.2-2-0.2-4-0.5-6c-0.3-2.3-0.8-4.6-1.4-6.8c-0.7-2.4-2.4-4.2-4.8-5
		c-2.3-0.7-4.6-1.3-6.9-1.9c-1.4-0.3-2.8-0.5-4.1-0.8c0-0.1,0-0.2,0-0.4c0.7-0.2,1.4-0.5,2.2-0.7c3.1-1,6.1-2.3,8.9-4.2
		c5-3.5,6.3-7.2,4.7-13.1c-1-3.7-3.2-6.3-6.9-7.3c-2.8-0.8-5.7-1.5-8.6-1.8c-6.5-0.8-13.1,0-19.6,0.2
		C229.2,326.8,226.4,327.4,223.6,327.9z M226.3,380.7c-0.1,0.1-0.3,0.2-0.4,0.2c-0.1,0-0.3,0-0.7,0c0.2-0.5,0.3-0.9,0.6-1.2
		c1.5-2,2.1-4.2,2.1-6.7c-0.1-11.9,0-23.8,0-35.7c0-2.7,0.2-5.5-2.2-7.6c2.3,0.3,3.5,1.5,3.9,3.6c0.1,0.9,0.1,1.8,0.1,2.6
		c0,12.5,0,25.1,0,37.6C229.7,376.6,228.4,378.8,226.3,380.7z M257.2,359c1.7,2.4,2.3,5.2,2.5,8.1c0.1,2.4,0.1,4.8,0,7.2
		c-0.1,2.6,0,5.1,2.3,7.1c-2.4-0.5-3.4-1.3-3.6-3.3c-0.2-1.6-0.2-3.2-0.3-4.8c-0.1-2.5-0.1-4.9-0.3-7.4c-0.3-3.3-1-6.6-3.7-9.1
		C255.7,356.9,256.5,358,257.2,359z M258.9,340.6c0,5.7-4.6,11.1-9.9,11.2c0.5-0.4,0.8-0.7,1.2-0.9c6.9-3.5,8.9-12.3,4-18.3
		c-0.9-1.1-2.2-1.8-3.3-2.6c-0.3-0.3-0.8-0.4-1.2-0.6C254.6,329.1,258.9,334.6,258.9,340.6z M238.3,341.7c0-2.2-0.1-4.3,0-6.5
		c0.1-3.5,1.6-5.1,5.1-5.5c5.1-0.6,9.3,1.9,10.9,6.6c1.8,5,0.1,10.1-4.2,12.8c-2.5,1.6-5.3,2.3-8.1,2.7c-2.1,0.3-3.6-1.1-3.7-3.4
		C238.2,346.2,238.3,344,238.3,341.7C238.3,341.7,238.3,341.7,238.3,341.7z"/>
	<path class="st1" d="M149.7,328.7c-0.2,0.5-0.3,1.1-0.4,1.6c-0.3,1.7-0.6,3.5-0.8,5.2c-0.1,1-0.2,2.1-0.3,3.1
		c0,0.8,0.3,1.5,1.2,1.5c0.5,0,1.3-0.4,1.5-0.8c0.7-1.3,1.3-2.6,1.6-4c0.6-2.4,2-4,4.2-4.8c3.9-1.5,8-1.5,12-0.8
		c0.2,0,0.4,0.2,0.6,0.4c0,0.6,0.1,1.3,0.1,1.9c0,13.8,0,27.7,0,41.5c0,0.8,0,1.6-0.1,2.4c-0.2,2.2-1.2,3.7-3.5,4.3
		c-0.8,0.2-1.5,0.5-2.2,0.9c-0.4,0.3-0.9,1-0.7,1.3c0.2,0.5,0.8,1.1,1.3,1.1c1.2,0.1,2.4,0.1,3.6,0c4.6-0.4,9.1-0.5,13.7,0
		c1.6,0.2,3.2,0.2,4.8,0.1c0.5,0,1.3-0.6,1.4-1c0.1-0.4-0.4-1.2-0.8-1.5c-0.6-0.4-1.4-0.7-2.2-0.9c-2-0.6-3.1-1.9-3.3-4
		c-0.1-1.4-0.2-2.9-0.2-4.3c0-13.1,0-26.2,0-39.4c0-0.9,0-1.7,0-2.5c4.2-1.4,11.1-0.3,14.2,2.3c1.2,1,1.9,2.3,2.4,3.8
		c0.3,1.1,0.9,2.2,1.5,3.3c0.4,0.7,1.1,1.4,1.9,0.9c0.6-0.3,0.9-1.2,1.2-1.9c0.1-0.4-0.1-0.9-0.2-1.4c-0.4-2.4-0.8-4.7-1.1-7.1
		c-0.4-3.3-1-3.9-4.3-3.9c-8.3,0.1-16.6,0.3-24.9,0.4c-6.3,0-12.6-0.1-19-0.1C150.7,326.4,150.4,326.6,149.7,328.7z M198.6,329.9
		c0.2,1.1,0.4,2.2,0.7,3.8c-1.7-1.5-3-2.6-4.5-4C196.2,329.4,197.3,329.5,198.6,329.9z M171.2,330.9c0.1-0.9,0.7-0.9,1.8-0.7
		c0,0.9,0,1.7,0,2.4c0,13.2,0,26.4,0,39.5c0,1.8-0.3,3.7-0.7,5.4c-0.4,1.4-1.2,2.7-3,3.4c0.1-0.5,0-0.9,0.2-1.1
		c1.5-2.4,1.8-5.1,1.8-7.8c0-13,0-26,0-39C171.2,332.3,171.2,331.6,171.2,330.9z M155.2,329.6c-1.6,1.1-2.9,2.1-4.2,3.1
		C150.7,329.3,151.6,328.7,155.2,329.6z"/>
	<path class="st1" d="M427.3,361.2c2.2,10.6,8.1,17.9,18.9,20.7c2.6,0.7,5.4,0.9,8.1,1.1c4.8,0.2,9.3-1.1,13.3-3.9
		c10-6.9,14.9-19.1,12.6-31c-2-10-12.1-22.1-24.5-22.8c-9-0.5-16.7,2.2-22.3,9.6c-4.4,5.8-6.7,12.3-6.7,19.6
		C426.8,356.8,426.8,359,427.3,361.2z M463,330.7c0.6,0.6,1.2,1.1,1.8,1.7c2,2.3,3.3,4.9,4.3,7.7c3.8,10.2,4.1,20.4-0.1,30.6
		c-1.1,2.6-2.4,5.1-4.4,7.1c-0.4,0.4-0.9,0.7-1.4,1.1c-0.2-0.4-0.3-0.6-0.3-0.7c4-4.1,5.5-9.3,6.6-14.6c1.6-8,0.7-15.9-1.8-23.6
		c-1-3-2.4-5.7-4.6-8c-0.2-0.2-0.3-0.5-0.5-0.7C462.7,331,462.8,330.9,463,330.7z M462,332.5c2.1,2.7,3.4,5.8,4.3,9
		c3,9.9,3.2,19.7-0.7,29.4c-0.7,1.8-1.7,3.7-2.8,5.3c-2.7,3.8-6.4,4.8-10.8,3.3c-2.6-0.9-4.6-2.6-6.2-4.7c-2.6-3.6-4.1-7.8-5-12.1
		c-0.6-3-1-6-1.3-8.2c-0.2-8.5,1.8-15.6,6.3-21.8C450.2,326.6,457.3,326.6,462,332.5z M438.8,331.4c0.4-0.3,0.7-0.6,1.1-0.9
		c0.1-0.1,0.3,0,1.2,0c-7.6,6.5-11.1,14.4-11,23.9c0.1,9.4,2.9,17.6,10.3,23.9c-0.4-0.2-0.9-0.4-1.3-0.7
		c-5.7-4.3-8.9-10.2-10.2-17.1C426.7,349,429.9,339.2,438.8,331.4z"/>
	<path class="st1" d="M375.3,383.6c0.4,0,0.9,0.1,1.2,0c0.6-0.3,1.5-0.6,1.6-1.1c0.2-0.5-0.2-1.5-0.7-1.8c-0.8-0.6-1.8-1.1-2.8-1.2
		c-3.2-0.3-4.3-0.8-4.4-4.8c0-0.3,0-0.6,0-1c0-10.6,0-21.3,0-31.9c0-0.6,0.1-1.2,0.1-2.2c0.8,0.9,1.3,1.3,1.7,1.9c4,5,8,10,12,15
		c6.8,8.5,13.6,17,20.4,25.5c0.8,1,1.6,1.9,3,1.4c1.4-0.4,2.2-1.6,2.2-3.3c0-0.6,0-1.1,0-1.7c0-14.1,0-28.2,0-42.2
		c0-1,0.1-2.1,0.2-3.1c0.2-1.7,1.3-2.7,2.9-3.1c0.5-0.1,0.9-0.2,1.4-0.3c1.5-0.4,2.2-1.2,2.1-2.2c-0.3-1.5-1.5-1.1-2.5-1.1
		c-4.8,0-9.6,0-14.4,0c-0.4,0-0.8-0.1-1.2,0.1c-0.5,0.2-1.3,0.5-1.5,0.9c-0.2,0.5,0.1,1.3,0.4,1.7c0.9,1.1,2.2,1.5,3.6,1.6
		c2.9,0.3,3.6,0.9,3.8,3.8c0,0.5,0,1,0,1.4c0,6.8,0,13.6,0,20.4c0,0.7-0.1,1.4-0.1,2c-0.2,0.1-0.4,0.2-0.5,0.3
		c-0.4-0.5-0.7-1-1.1-1.5c-1.7-2-3.4-4.1-5.1-6.1c-6.4-7.6-12.8-15.2-19.1-22.8c-0.8-1-1.6-1.9-3.2-1.7c-3.7,0.5-7.5,0.4-11.2,0
		c-1.2-0.1-2.6,0-3.8,0.2c-0.4,0.1-1,0.6-1.1,1c-0.1,0.4,0.3,1,0.6,1.5c0.1,0.2,0.5,0.3,0.8,0.4c3.1,1.3,4.3,3.5,4.3,6.9
		c-0.2,12.6-0.1,25.3-0.1,37.9c0,0.6,0,1.3,0,1.9c-0.2,2.1-1.1,3.2-3.1,3.7c-0.6,0.2-1.3,0.3-1.9,0.5c-1,0.3-1.7,1-1.6,2.1
		c0.2,1.1,1.2,1.2,2.1,1.1L375.3,383.6z M370.5,333.5c12,15.1,23.7,29.8,35.4,44.6c0.2,0.3,0.3,0.7,0.4,1c-0.2,0.1-0.4,0.3-0.5,0.4
		c-0.7-0.7-1.4-1.4-2.1-2.1c-10-12.4-19.9-24.8-29.9-37.2c-0.9-1.1-1.8-2.3-2.7-3.4C370.4,336,370.2,335.1,370.5,333.5z
		 M365.1,379.6c1.1-1.7,1.3-3.5,1.3-5.5c0-9.8,0-19.5,0.1-29.3c0-2.6,0-5.1,0.1-7.7c0.1-2.7-0.1-5.3-1.8-7.6c2,0.4,3,1.7,3.3,3.5
		c0.1,0.7,0.1,1.4,0.1,2.1c0,13,0,26.1,0,39.1c0,2.5-0.6,4.6-2.6,6.1c-0.2,0.1-0.4,0.3-0.6,0.4c-0.1,0.1-0.3,0-0.7,0
		C364.7,380.3,364.9,380,365.1,379.6z"/>
</g>
<g id="Layer_2">
</g>
</svg>
