<?xml version="1.0" standalone="no"?>
<!DOCTYPE svg PUBLIC "-//W3C//DTD SVG 20010904//EN"
 "http://www.w3.org/TR/2001/REC-SVG-20010904/DTD/svg10.dtd">
<svg version="1.0" xmlns="http://www.w3.org/2000/svg"
 width="260.000000pt" height="260.000000pt" viewBox="0 0 260.000000 260.000000"
 preserveAspectRatio="xMidYMid meet">
<metadata>
Created by potrace 1.11, written by Peter Selinger 2001-2013
</metadata>
<g transform="translate(0.000000,260.000000) scale(0.100000,-0.100000)"
fill="#000000" stroke="none">
<path d="M0 1300 l0 -1300 1300 0 1300 0 0 1300 0 1300 -1300 0 -1300 0 0
-1300z m1994 781 c11 -12 24 -64 36 -142 11 -68 22 -138 25 -155 8 -38 -31
-92 -59 -81 -9 4 -36 49 -60 100 -28 60 -56 104 -79 124 -68 60 -260 99 -354
74 l-43 -12 1 -582 c0 -320 4 -619 8 -665 10 -98 30 -126 110 -155 54 -19 80
-49 62 -71 -8 -10 -84 -13 -342 -12 -292 1 -331 3 -339 17 -14 25 8 46 75 72
107 41 100 -12 103 738 2 596 1 647 -14 660 -12 10 -51 15 -126 17 -88 3 -121
0 -176 -17 -97 -29 -127 -59 -162 -160 -31 -89 -52 -121 -80 -121 -38 0 -43
24 -30 128 17 141 39 230 59 244 14 10 172 13 694 15 642 2 675 1 691 -16z"/>
<path d="M636 2004 c-15 -14 -23 -74 -11 -74 3 0 28 17 55 37 42 31 47 39 33
45 -31 12 -61 9 -77 -8z"/>
<path d="M1857 2004 c-3 -3 17 -26 45 -51 27 -24 52 -42 55 -39 3 2 2 23 -2
44 -5 30 -12 42 -28 46 -29 7 -62 8 -70 0z"/>
<path d="M1188 1988 c-1 -2 -5 -295 -8 -653 -5 -649 -5 -650 -28 -699 -12 -27
-20 -51 -18 -53 12 -12 50 24 69 65 22 46 22 55 25 695 3 645 3 647 -18 647
-11 0 -21 -1 -22 -2z"/>
</g>
</svg>
